<?xml version="1.0" encoding="UTF-8" standalone="no"?>
<svg
   width="150"
   height="380"
   viewBox="0 0 150 380"
   version="1.1"
   id="svg13"
   sodipodi:docname="Phrasing.svg"
   inkscape:version="1.4.2 (ebf0e940, 2025-05-08)"
   xmlns:inkscape="http://www.inkscape.org/namespaces/inkscape"
   xmlns:sodipodi="http://sodipodi.sourceforge.net/DTD/sodipodi-0.dtd"
   xmlns="http://www.w3.org/2000/svg"
   xmlns:svg="http://www.w3.org/2000/svg">
  <sodipodi:namedview
     id="namedview13"
     pagecolor="#ffffff"
     bordercolor="#000000"
     borderopacity="0.25"
     inkscape:showpageshadow="2"
     inkscape:pageopacity="0.0"
     inkscape:pagecheckerboard="0"
     inkscape:deskcolor="#d1d1d1"
     inkscape:zoom="2.6552632"
     inkscape:cx="97.730425"
     inkscape:cy="179.4549"
     inkscape:window-width="1760"
     inkscape:window-height="1182"
     inkscape:window-x="744"
     inkscape:window-y="47"
     inkscape:window-maximized="0"
     inkscape:current-layer="svg13"
     showgrid="false" />
  <defs
     id="defs2">
    <linearGradient
       id="bgGrad"
       x1="0"
       y1="0"
       x2="0"
       y2="380"
       gradientUnits="userSpaceOnUse">
      <stop
         offset="0%"
         stop-color="#d0d0d0"
         id="stop1" />
      <stop
         offset="100%"
         stop-color="#b8b8b8"
         id="stop2" />
    </linearGradient>
  </defs>
  <!-- Panel background -->
  <rect
     x="0"
     y="0"
     width="150"
     height="380"
     fill="url(#bgGrad)"
     id="rect2" />
  <!-- THEREELPEET logo (centered) -->
  <!-- Nudge with translate(x,y) if needed -->
  <g
     id="thereelpeetLogo"
     transform="translate(-1.8040634,-8)">
    <!-- THEREELPEET (black) -->
    <path
       d="m 31.73366,28.186202 h -2.770842 v 6.838563 h -1.031253 v -6.838563 h -2.770842 v -0.91667 h 6.572937 z m 9.32398,6.838563 h -1.031253 v -3.796887 h -3.869804 v 3.796887 H 35.12533 v -7.755233 h 1.031253 v 3.041677 h 3.869804 v -3.041677 h 1.031253 z m 9.542731,0 H 45.49098 v -7.755233 h 5.109391 v 0.91667 h -4.078137 v 2.125007 h 4.078137 v 0.916669 h -4.078137 v 2.880218 h 4.078137 z m 10.402109,0 h -1.338546 l -2.593758,-3.083343 h -1.45313 v 3.083343 h -1.031253 v -7.755233 h 2.171882 q 0.703127,0 1.171878,0.09375 0.468752,0.08854 0.843753,0.322917 0.421876,0.265626 0.656252,0.671877 0.239584,0.401043 0.239584,1.020837 0,0.838544 -0.421876,1.406254 -0.421877,0.562502 -1.161462,0.848961 z m -2.411466,-5.572934 q 0,-0.333335 -0.119792,-0.588544 -0.114584,-0.260417 -0.385418,-0.437501 -0.223959,-0.151042 -0.531252,-0.208334 -0.307293,-0.0625 -0.723961,-0.0625 h -1.213545 v 2.927092 h 1.04167 q 0.489585,0 0.854169,-0.08333 0.364585,-0.08854 0.619794,-0.322918 0.234376,-0.218751 0.343751,-0.500001 0.114584,-0.28646 0.114584,-0.723961 z m 10.870859,5.572934 h -5.109391 v -7.755233 h 5.109391 v 0.91667 h -4.078138 v 2.125007 h 4.078138 v 0.916669 h -4.078138 v 2.880218 h 4.078138 z m 9.094814,0 h -5.109391 v -7.755233 h 5.109391 v 0.91667 H 74.47855 v 2.125007 h 4.078137 v 0.916669 H 74.47855 v 2.880218 h 4.078137 z m 8.891689,0 h -4.906265 v -7.755233 h 1.031253 v 6.838564 h 3.875012 z m 8.454185,-5.411475 q 0,0.515626 -0.182292,0.958336 -0.177084,0.437501 -0.500002,0.760419 -0.401043,0.401043 -0.94792,0.604169 -0.546876,0.197917 -1.380212,0.197917 h -1.031254 v 2.890634 h -1.031253 v -7.755233 h 2.104173 q 0.697919,0 1.182296,0.119792 0.484376,0.114584 0.859378,0.364585 0.442709,0.296876 0.682293,0.739586 0.244793,0.442709 0.244793,1.119795 z m -1.07292,0.02604 q 0,-0.401042 -0.140626,-0.697918 -0.140625,-0.296876 -0.427084,-0.484377 -0.250001,-0.161459 -0.572919,-0.229167 -0.317709,-0.07292 -0.807294,-0.07292 h -1.020837 v 3.098968 h 0.869795 q 0.625002,0 1.015628,-0.109375 0.390626,-0.114584 0.635419,-0.359377 0.244792,-0.25 0.343751,-0.526043 0.104167,-0.276042 0.104167,-0.619794 z m 9.891689,5.385434 h -5.109391 v -7.755233 h 5.109391 v 0.91667 h -4.07814 v 2.125007 h 4.07814 v 0.916669 h -4.07814 v 2.880218 h 4.07814 z m 9.09481,0 h -5.10939 v -7.755233 h 5.10939 v 0.91667 H 109.738 v 2.125007 h 4.07814 v 0.916669 H 109.738 v 2.880218 h 4.07814 z m 9.51669,-6.838563 h -2.77084 v 6.838563 h -1.03125 v -6.838563 h -2.77084 v -0.91667 h 6.57293 z"
       id="text8"
       style="font-size:10.6667px;-inkscape-font-specification:'sans-serif, Normal';letter-spacing:2.35px"
       aria-label="THEREELPEET" />
    <!-- THEREELPEET (red shadow/offset) -->
    <path
       d="m 33.027844,29.246693 h -2.770842 v 6.838563 h -1.031253 v -6.838563 h -2.770843 v -0.91667 h 6.572938 z m 9.32398,6.838563 h -1.031253 v -3.796887 h -3.869804 v 3.796887 h -1.031253 v -7.755233 h 1.031253 V 31.3717 h 3.869804 v -3.041677 h 1.031253 z m 9.542731,0 h -5.109391 v -7.755233 h 5.109391 v 0.91667 H 47.816417 V 31.3717 h 4.078138 v 0.916669 h -4.078138 v 2.880218 h 4.078138 z m 10.402108,0 H 60.958117 L 58.364359,33.001913 H 56.91123 v 3.083343 h -1.031254 v -7.755233 h 2.171882 q 0.703127,0 1.171879,0.09375 0.468751,0.08854 0.843753,0.322917 0.421876,0.265626 0.656252,0.671878 0.239584,0.401042 0.239584,1.020836 0,0.838544 -0.421877,1.406255 -0.421876,0.562501 -1.161462,0.848961 z m -2.411466,-5.572934 q 0,-0.333334 -0.119792,-0.588544 -0.114583,-0.260417 -0.385418,-0.437501 -0.223959,-0.151042 -0.531251,-0.208334 -0.307293,-0.0625 -0.723961,-0.0625 H 56.91123 v 2.927092 h 1.04167 q 0.489584,0 0.854169,-0.08333 0.364584,-0.08854 0.619794,-0.322918 0.234375,-0.218751 0.343751,-0.500001 0.114583,-0.28646 0.114583,-0.723961 z m 10.87086,5.572934 h -5.109391 v -7.755233 h 5.109391 v 0.91667 H 66.677919 V 31.3717 h 4.078138 v 0.916669 h -4.078138 v 2.880218 h 4.078138 z m 9.094814,0 H 74.74148 v -7.755233 h 5.109391 v 0.91667 H 75.772733 V 31.3717 h 4.078138 v 0.916669 h -4.078138 v 2.880218 h 4.078138 z m 8.891689,0 h -4.906266 v -7.755233 h 1.031254 v 6.838564 h 3.875012 z m 8.454185,-5.411475 q 0,0.515626 -0.182293,0.958336 -0.177084,0.437502 -0.500001,0.760419 -0.401043,0.401043 -0.94792,0.604169 -0.546877,0.197917 -1.380213,0.197917 h -1.031253 v 2.890634 h -1.031253 v -7.755233 h 2.104173 q 0.697919,0 1.182296,0.119792 0.484376,0.114584 0.859377,0.364585 0.44271,0.296876 0.682294,0.739586 0.244793,0.442709 0.244793,1.119795 z m -1.072921,0.02604 q 0,-0.401043 -0.140625,-0.697919 -0.140625,-0.296876 -0.427085,-0.484377 -0.25,-0.161459 -0.572918,-0.229167 -0.317709,-0.07292 -0.807294,-0.07292 h -1.020837 v 3.098968 h 0.869795 q 0.625001,0 1.015628,-0.109375 0.390626,-0.114584 0.635418,-0.359376 0.244793,-0.250001 0.343751,-0.526044 0.104167,-0.276042 0.104167,-0.619793 z m 9.891686,5.385433 h -5.10939 v -7.755233 h 5.10939 v 0.91667 h -4.07813 v 2.125007 h 4.07813 v 0.916669 h -4.07813 v 2.880218 h 4.07813 z m 9.09481,0 h -5.10939 v -7.755233 h 5.10939 v 0.91667 h -4.07813 v 2.125007 h 4.07813 v 0.916669 h -4.07813 v 2.880218 h 4.07813 z m 9.5167,-6.838563 h -2.77084 v 6.838563 h -1.03126 v -6.838563 h -2.77084 v -0.91667 h 6.57294 z"
       id="text8-1"
       style="font-size:10.6667px;-inkscape-font-specification:'sans-serif, Normal';letter-spacing:2.35px;fill:#ff0000"
       aria-label="THEREELPEET" />
  </g>
  <!-- GLOBAL knob (density) centered under logo -->
  <g
     id="globalControl"
     fill="none"
     stroke="#111"
     stroke-opacity="0.65">
    <!-- removed circle2 -->
  </g>
  <g
     id="vcv-global-anchor"
     fill="#000"
     fill-opacity="0">
    <circle
       id="DENSITY_PARAM"
       cx="75"
       cy="58"
       r="16" />
  </g>
  <!-- Vertical lanes with color identity -->
  <!-- Lowered a bit to make room for global knob -->
  <g
     id="lanes">
    <rect
       x="6"
       y="90"
       width="32"
       height="278"
       rx="7"
       ry="7"
       fill="#d94a4a"
       fill-opacity="0.18"
       stroke="#000"
       stroke-opacity="0.10"
       stroke-width="1"
       id="rect3" />
    <rect
       x="40"
       y="90"
       width="32"
       height="278"
       rx="7"
       ry="7"
       fill="#4a78d9"
       fill-opacity="0.18"
       stroke="#000"
       stroke-opacity="0.10"
       stroke-width="1"
       id="rect4" />
    <rect
       x="74"
       y="90"
       width="32"
       height="278"
       rx="7"
       ry="7"
       fill="#5fa86e"
       fill-opacity="0.18"
       stroke="#000"
       stroke-opacity="0.10"
       stroke-width="1"
       id="rect5" />
    <rect
       x="108"
       y="90"
       width="32"
       height="278"
       rx="7"
       ry="7"
       fill="#d9b44a"
       fill-opacity="0.18"
       stroke="#000"
       stroke-opacity="0.10"
       stroke-width="1"
       id="rect6" />
  </g>
  <path
     d="m 48.657068,216.52803 q 0.236979,0.26042 0.361979,0.63802 0.127604,0.37761 0.127604,0.85677 0,0.47917 -0.130208,0.85938 -0.127604,0.3776 -0.359375,0.63021 -0.239583,0.26302 -0.567708,0.39583 -0.325521,0.13281 -0.744791,0.13281 -0.408854,0 -0.744791,-0.13542 -0.333334,-0.13541 -0.567708,-0.39322 -0.234375,-0.25782 -0.361979,-0.63282 -0.125,-0.375 -0.125,-0.85677 0,-0.47395 0.125,-0.84895 0.125,-0.37761 0.364583,-0.64584 0.229166,-0.25521 0.567708,-0.39062 0.341145,-0.13542 0.742187,-0.13542 0.416666,0 0.747395,0.13802 0.333333,0.13542 0.565104,0.38802 z m -0.04687,1.49479 q 0,-0.7552 -0.338541,-1.16406 -0.338542,-0.41146 -0.924479,-0.41146 -0.591146,0 -0.929687,0.41146 -0.335937,0.40886 -0.335937,1.16406 0,0.76302 0.343749,1.16927 0.34375,0.40365 0.921875,0.40365 0.578125,0 0.91927,-0.40365 0.34375,-0.40625 0.34375,-1.16927 z m 3.72656,1.9375 h -0.489583 v -0.32291 q -0.247395,0.19531 -0.473958,0.29947 -0.226562,0.10417 -0.5,0.10417 -0.458333,0 -0.713541,-0.27864 -0.255208,-0.28125 -0.255208,-0.82292 v -1.88802 h 0.489583 v 1.65625 q 0,0.22135 0.02083,0.38021 0.02083,0.15625 0.08854,0.26823 0.07031,0.11458 0.182292,0.16666 0.111979,0.0521 0.32552,0.0521 0.190104,0 0.414062,-0.099 0.226563,-0.099 0.421875,-0.25261 v -2.17187 h 0.489583 z m 2.473957,-0.026 q -0.138021,0.0365 -0.302083,0.0599 -0.161458,0.0234 -0.289062,0.0234 -0.445312,0 -0.677083,-0.23958 -0.231771,-0.23958 -0.231771,-0.76823 v -1.54687 h -0.330729 v -0.41146 h 0.330729 v -0.83594 h 0.489583 v 0.83594 h 1.010416 v 0.41146 h -1.010416 v 1.32552 q 0,0.22916 0.01042,0.35937 0.01042,0.12761 0.07292,0.23959 0.05729,0.10416 0.15625,0.15364 0.101563,0.0469 0.307292,0.0469 0.119791,0 0.25,-0.0339 0.130208,-0.0365 0.1875,-0.0599 h 0.02604 z m 3.15104,-1.46354 q 0,0.35417 -0.101562,0.64844 -0.101563,0.29166 -0.286458,0.49479 -0.171875,0.19271 -0.40625,0.29948 -0.231771,0.10416 -0.492187,0.10416 -0.226563,0 -0.411458,-0.0495 -0.182292,-0.0495 -0.372396,-0.15364 v 1.21875 h -0.489583 v -3.98177 h 0.489583 v 0.30469 q 0.195312,-0.16407 0.4375,-0.27344 0.244791,-0.11198 0.520833,-0.11198 0.526041,0 0.817708,0.39844 0.29427,0.39583 0.29427,1.10156 z m -0.505208,0.013 q 0,-0.52604 -0.179687,-0.78646 -0.179687,-0.26041 -0.552083,-0.26041 -0.210937,0 -0.424479,0.0911 -0.213542,0.0912 -0.408854,0.23959 v 1.64843 q 0.208333,0.0937 0.356771,0.12761 0.151041,0.0339 0.341145,0.0339 0.408854,0 0.638021,-0.27604 0.229166,-0.27604 0.229166,-0.81771 z m 3.679685,1.47656 h -0.489583 v -0.32291 q -0.247396,0.19531 -0.473958,0.29947 -0.226562,0.10417 -0.5,0.10417 -0.458333,0 -0.713541,-0.27864 -0.255208,-0.28125 -0.255208,-0.82292 v -1.88802 h 0.489583 v 1.65625 q 0,0.22135 0.02083,0.38021 0.02083,0.15625 0.08854,0.26823 0.07031,0.11458 0.182291,0.16666 0.111979,0.0521 0.325521,0.0521 0.190104,0 0.414062,-0.099 0.226563,-0.099 0.421875,-0.25261 v -2.17187 h 0.489583 z m 2.473958,-0.026 q -0.138021,0.0365 -0.302083,0.0599 -0.161458,0.0234 -0.289063,0.0234 -0.445312,0 -0.677082,-0.23958 -0.231771,-0.23958 -0.231771,-0.76823 v -1.54687 h -0.330729 v -0.41146 h 0.330729 v -0.83594 h 0.489583 v 0.83594 h 1.010416 v 0.41146 h -1.010421 v 1.32552 q 0,0.22916 0.01042,0.35937 0.01042,0.12761 0.07292,0.23959 0.05729,0.10416 0.15625,0.15364 0.101563,0.0469 0.307292,0.0469 0.119791,0 0.249999,-0.0339 0.130209,-0.0365 0.1875,-0.0599 h 0.02604 z"
     id="text5-3"
     style="font-size:5.33333px;font-family:Sans;-inkscape-font-specification:'Sans, Normal';letter-spacing:0px"
     aria-label="Output" />
  <path
     d="m 83.60454,216.48938 q 0.236979,0.26042 0.361979,0.63802 0.127604,0.37761 0.127604,0.85677 0,0.47917 -0.130209,0.85938 -0.127604,0.3776 -0.359374,0.63021 -0.239584,0.26302 -0.567708,0.39583 -0.325521,0.13281 -0.744792,0.13281 -0.408854,0 -0.744791,-0.13542 -0.333333,-0.13541 -0.567708,-0.39322 -0.234375,-0.25782 -0.361979,-0.63282 -0.125,-0.375 -0.125,-0.85677 0,-0.47396 0.125,-0.84895 0.125,-0.37761 0.364583,-0.64584 0.229167,-0.25521 0.567708,-0.39062 0.341146,-0.13542 0.742187,-0.13542 0.416667,0 0.747396,0.13802 0.333333,0.13542 0.565104,0.38802 z m -0.04687,1.49479 q 0,-0.7552 -0.338542,-1.16406 -0.338541,-0.41146 -0.924478,-0.41146 -0.591146,0 -0.929687,0.41146 -0.335938,0.40886 -0.335938,1.16406 0,0.76302 0.34375,1.16927 0.34375,0.40365 0.921875,0.40365 0.578124,0 0.91927,-0.40365 0.34375,-0.40625 0.34375,-1.16927 z m 3.72656,1.9375 h -0.489583 v -0.32291 q -0.247396,0.19531 -0.473958,0.29947 -0.226563,0.10417 -0.5,0.10417 -0.458333,0 -0.713541,-0.27864 -0.255208,-0.28125 -0.255208,-0.82292 v -1.88802 h 0.489583 v 1.65625 q 0,0.22135 0.02083,0.38021 0.02083,0.15625 0.08854,0.26823 0.07031,0.11458 0.182291,0.16666 0.111979,0.0521 0.325521,0.0521 0.190104,0 0.414062,-0.099 0.226562,-0.099 0.421875,-0.25261 v -2.17187 h 0.489583 z m 2.473957,-0.026 q -0.138021,0.0365 -0.302083,0.0599 -0.161459,0.0234 -0.289063,0.0234 -0.445312,0 -0.677083,-0.23958 -0.23177,-0.23958 -0.23177,-0.76823 v -1.54687 h -0.330729 v -0.41146 h 0.330729 v -0.83594 h 0.489583 v 0.83594 h 1.010416 v 0.41146 h -1.010416 v 1.32552 q 0,0.22916 0.01042,0.35937 0.01042,0.12761 0.07292,0.23959 0.05729,0.10416 0.15625,0.15364 0.101562,0.0469 0.307291,0.0469 0.119792,0 0.25,-0.0339 0.130209,-0.0365 0.1875,-0.0599 h 0.02604 z m 3.15104,-1.46354 q 0,0.35417 -0.101563,0.64844 -0.101562,0.29166 -0.286458,0.49479 -0.171875,0.19271 -0.406249,0.29948 -0.231771,0.10416 -0.492188,0.10416 -0.226562,0 -0.411458,-0.0495 -0.182291,-0.0495 -0.372395,-0.15364 v 1.21875 h -0.489583 v -3.98177 h 0.489583 v 0.30469 q 0.195312,-0.16407 0.437499,-0.27344 0.244792,-0.11198 0.520833,-0.11198 0.526042,0 0.817708,0.39844 0.294271,0.39583 0.294271,1.10156 z m -0.505208,0.013 q 0,-0.52604 -0.179687,-0.78646 -0.179688,-0.26041 -0.552083,-0.26041 -0.210938,0 -0.424479,0.0911 -0.213542,0.0911 -0.408854,0.23958 v 1.64844 q 0.208333,0.0937 0.35677,0.12761 0.151042,0.0339 0.341146,0.0339 0.408854,0 0.63802,-0.27604 0.229167,-0.27604 0.229167,-0.81771 z m 3.679685,1.47656 h -0.489583 v -0.32291 q -0.247396,0.19531 -0.473958,0.29947 -0.226563,0.10417 -0.5,0.10417 -0.458333,0 -0.713541,-0.27864 -0.255209,-0.28125 -0.255209,-0.82292 v -1.88802 h 0.489583 v 1.65625 q 0,0.22135 0.02083,0.38021 0.02083,0.15625 0.08854,0.26823 0.07031,0.11458 0.182292,0.16666 0.111979,0.0521 0.325521,0.0521 0.190104,0 0.414062,-0.099 0.226562,-0.099 0.421875,-0.25261 v -2.17187 h 0.489583 z m 2.473958,-0.026 q -0.138021,0.0365 -0.302084,0.0599 -0.161458,0.0234 -0.289062,0.0234 -0.445312,0 -0.677083,-0.23958 -0.231771,-0.23958 -0.231771,-0.76823 v -1.54687 h -0.330729 v -0.41146 h 0.330729 v -0.83594 h 0.489584 v 0.83594 h 1.010416 v 0.41146 h -1.010416 v 1.32552 q 0,0.22916 0.01042,0.35937 0.01042,0.12761 0.07292,0.23959 0.05729,0.10416 0.15625,0.15364 0.101562,0.0469 0.307291,0.0469 0.119792,0 0.25,-0.0339 0.130208,-0.0365 0.1875,-0.0599 h 0.02604 z"
     id="text5-5"
     style="font-size:5.33333px;font-family:Sans;-inkscape-font-specification:'Sans, Normal';letter-spacing:0px"
     aria-label="Output" />
  <path
     d="m 116.99404,215.80059 q 0.23698,0.26041 0.36198,0.63802 0.12761,0.3776 0.12761,0.85677 0,0.47916 -0.13021,0.85937 -0.12761,0.3776 -0.35938,0.63021 -0.23958,0.26302 -0.5677,0.39583 -0.32552,0.13281 -0.7448,0.13281 -0.40885,0 -0.74479,-0.13541 -0.33333,-0.13542 -0.5677,-0.39323 -0.23438,-0.25781 -0.36198,-0.63281 -0.125,-0.375 -0.125,-0.85677 0,-0.47396 0.125,-0.84896 0.125,-0.37761 0.36458,-0.64583 0.22917,-0.25521 0.56771,-0.39063 0.34114,-0.13542 0.74218,-0.13542 0.41667,0 0.7474,0.13802 0.33333,0.13542 0.5651,0.38803 z m -0.0469,1.49479 q 0,-0.75521 -0.33854,-1.16407 -0.33854,-0.41145 -0.92448,-0.41145 -0.59115,0 -0.92969,0.41145 -0.33594,0.40886 -0.33594,1.16407 0,0.76302 0.34375,1.16927 0.34375,0.40364 0.92188,0.40364 0.57812,0 0.91927,-0.40364 0.34375,-0.40625 0.34375,-1.16927 z m 3.72656,1.93749 h -0.48958 v -0.32291 q -0.2474,0.19531 -0.47396,0.29948 -0.22656,0.10416 -0.5,0.10416 -0.45833,0 -0.71354,-0.27864 -0.25521,-0.28125 -0.25521,-0.82292 v -1.88802 h 0.48958 v 1.65625 q 0,0.22136 0.0208,0.38021 0.0208,0.15625 0.0885,0.26823 0.0703,0.11458 0.18229,0.16667 0.11198,0.0521 0.32552,0.0521 0.1901,0 0.41406,-0.099 0.22656,-0.099 0.42188,-0.2526 V 216.324 h 0.48958 z m 2.47396,-0.026 q -0.13802,0.0365 -0.30209,0.0599 -0.16146,0.0234 -0.28906,0.0234 -0.44531,0 -0.67708,-0.23959 -0.23177,-0.23958 -0.23177,-0.76823 v -1.54687 h -0.33073 v -0.41146 h 0.33073 v -0.83593 h 0.48958 v 0.83593 h 1.01042 v 0.41146 h -1.01042 v 1.32552 q 0,0.22917 0.0104,0.35938 0.0104,0.1276 0.0729,0.23958 0.0573,0.10417 0.15625,0.15364 0.10157,0.0469 0.30729,0.0469 0.1198,0 0.25,-0.0339 0.13021,-0.0365 0.1875,-0.0599 h 0.026 z m 3.15104,-1.46354 q 0,0.35417 -0.10157,0.64844 -0.10156,0.29167 -0.28645,0.49479 -0.17188,0.19271 -0.40625,0.29948 -0.23177,0.10417 -0.49219,0.10417 -0.22656,0 -0.41146,-0.0495 -0.18229,-0.0495 -0.37239,-0.15365 v 1.21875 h -0.48959 v -3.98177 h 0.48959 v 0.30469 q 0.19531,-0.16406 0.43749,-0.27344 0.2448,-0.11198 0.52084,-0.11198 0.52604,0 0.81771,0.39844 0.29427,0.39583 0.29427,1.10156 z m -0.50521,0.013 q 0,-0.52604 -0.17969,-0.78645 -0.17969,-0.26042 -0.55208,-0.26042 -0.21094,0 -0.42448,0.0911 -0.21354,0.0911 -0.40885,0.23959 v 1.64843 q 0.20833,0.0937 0.35677,0.12761 0.15104,0.0339 0.34114,0.0339 0.40886,0 0.63802,-0.27604 0.22917,-0.27604 0.22917,-0.81771 z m 3.67968,1.47656 h -0.48958 v -0.32291 q -0.2474,0.19531 -0.47396,0.29948 -0.22656,0.10416 -0.5,0.10416 -0.45833,0 -0.71354,-0.27864 -0.25521,-0.28125 -0.25521,-0.82292 v -1.88802 h 0.48959 v 1.65625 q 0,0.22136 0.0208,0.38021 0.0208,0.15625 0.0885,0.26823 0.0703,0.11458 0.18229,0.16667 0.11198,0.0521 0.32552,0.0521 0.19011,0 0.41407,-0.099 0.22656,-0.099 0.42187,-0.2526 v -2.17188 h 0.48958 z m 2.47396,-0.026 q -0.13802,0.0365 -0.30208,0.0599 -0.16146,0.0234 -0.28906,0.0234 -0.44532,0 -0.67709,-0.23959 -0.23177,-0.23958 -0.23177,-0.76823 v -1.54687 h -0.33073 v -0.41146 h 0.33073 v -0.83593 h 0.48958 v 0.83593 h 1.01042 v 0.41146 h -1.01042 v 1.32552 q 0,0.22917 0.0104,0.35938 0.0104,0.1276 0.0729,0.23958 0.0573,0.10417 0.15625,0.15364 0.10156,0.0469 0.30729,0.0469 0.11979,0 0.25,-0.0339 0.13021,-0.0365 0.1875,-0.0599 h 0.026 z"
     id="text5-4"
     style="font-size:5.33333px;font-family:Sans;-inkscape-font-specification:'Sans, Normal';letter-spacing:0px"
     aria-label="Output" />
  <path
     style="font-size:5.33333px;font-family:Sans;-inkscape-font-specification:'Sans, Normal';letter-spacing:0px"
     d="m 113.65241,171.87382 q 0,0.25782 -0.0911,0.47917 -0.0885,0.21875 -0.25,0.38021 -0.20052,0.20052 -0.47396,0.30208 -0.27344,0.099 -0.6901,0.099 h -0.51563 v 1.44531 H 111.116 v -3.8776 h 1.05208 q 0.34896,0 0.59114,0.0599 0.24219,0.0573 0.42969,0.1823 0.22136,0.14843 0.34115,0.36979 0.12239,0.22135 0.12239,0.55989 z m -0.53646,0.013 q 0,-0.20052 -0.0703,-0.34895 -0.0703,-0.14844 -0.21354,-0.24219 -0.125,-0.0807 -0.28646,-0.11458 -0.15885,-0.0365 -0.40364,-0.0365 h -0.51042 v 1.54948 h 0.4349 q 0.3125,0 0.50781,-0.0547 0.19531,-0.0573 0.31771,-0.17969 0.12239,-0.125 0.17187,-0.26302 0.0521,-0.13802 0.0521,-0.3099 z m 2.99219,0.31771 h -0.026 q -0.10938,-0.026 -0.21354,-0.0365 -0.10157,-0.013 -0.24219,-0.013 -0.22656,0 -0.4375,0.10157 -0.21094,0.099 -0.40625,0.25781 v 2.0651 h -0.48958 v -2.90885 h 0.48958 v 0.42969 q 0.29167,-0.23438 0.51302,-0.33073 0.22396,-0.099 0.45573,-0.099 0.1276,0 0.1849,0.008 0.0573,0.005 0.17187,0.0234 z m 2.89583,0.97138 h -2.14323 q 0,0.26822 0.0807,0.46875 0.0807,0.19791 0.22136,0.32552 0.13541,0.125 0.32031,0.1875 0.1875,0.0625 0.41146,0.0625 0.29687,0 0.59635,-0.11719 0.30208,-0.11979 0.42969,-0.23438 h 0.026 v 0.53386 q -0.2474,0.10416 -0.50521,0.17448 -0.25781,0.0703 -0.54166,0.0703 -0.72396,0 -1.13021,-0.39063 -0.40625,-0.39322 -0.40625,-1.11458 0,-0.71354 0.38802,-1.13281 0.39062,-0.41927 1.02604,-0.41927 0.58854,0 0.90625,0.34375 0.32031,0.34375 0.32031,0.97656 z m -0.47656,-0.375 q -0.003,-0.38542 -0.19531,-0.59636 -0.19011,-0.21094 -0.58073,-0.21094 -0.39323,0 -0.62761,0.23178 -0.23177,0.23177 -0.26302,0.57552 z m 3.29687,0.9401 q 0,0.39844 -0.33073,0.65365 -0.32812,0.2552 -0.89843,0.2552 -0.32292,0 -0.59375,-0.0755 -0.26823,-0.0781 -0.45052,-0.16927 v -0.54948 h 0.026 q 0.23177,0.17448 0.51562,0.27865 0.28386,0.10156 0.54427,0.10156 0.32292,0 0.50521,-0.10417 0.18229,-0.10416 0.18229,-0.32812 0,-0.17188 -0.099,-0.26042 -0.0989,-0.0885 -0.3802,-0.15104 -0.10417,-0.0234 -0.27344,-0.0547 -0.16667,-0.0312 -0.30469,-0.0677 -0.38281,-0.10157 -0.54427,-0.29688 -0.15885,-0.19792 -0.15885,-0.48437 0,-0.17969 0.0729,-0.33855 0.0755,-0.15885 0.22657,-0.28385 0.14583,-0.1224 0.36979,-0.19271 0.22656,-0.0729 0.50521,-0.0729 0.26041,0 0.52604,0.0651 0.26823,0.0625 0.44531,0.15365 v 0.52343 h -0.026 q -0.1875,-0.13802 -0.45573,-0.23177 -0.26823,-0.0964 -0.52604,-0.0964 -0.26823,0 -0.45313,0.10416 -0.18489,0.10157 -0.18489,0.30469 0,0.17969 0.11198,0.27084 0.10937,0.0911 0.35416,0.14843 0.13542,0.0312 0.30209,0.0625 0.16927,0.0312 0.28125,0.0573 0.34114,0.0781 0.52604,0.26823 0.18489,0.19271 0.18489,0.51042 z m 3.13542,-0.5651 h -2.14323 q 0,0.26822 0.0807,0.46875 0.0807,0.19791 0.22135,0.32552 0.13542,0.125 0.32031,0.1875 0.1875,0.0625 0.41146,0.0625 0.29688,0 0.59636,-0.11719 0.30208,-0.11979 0.42968,-0.23438 h 0.026 v 0.53386 q -0.2474,0.10416 -0.50521,0.17448 -0.25782,0.0703 -0.54167,0.0703 -0.72396,0 -1.13021,-0.39063 -0.40625,-0.39322 -0.40625,-1.11458 0,-0.71354 0.38802,-1.13281 0.39063,-0.41927 1.02605,-0.41927 0.58854,0 0.90624,0.34375 0.32032,0.34375 0.32032,0.97656 z m -0.47657,-0.375 q -0.003,-0.38542 -0.19531,-0.59636 -0.1901,-0.21094 -0.58073,-0.21094 -0.39323,0 -0.6276,0.23178 -0.23177,0.23177 -0.26302,0.57552 z m 3.65104,1.77864 h -0.48958 v -1.65625 q 0,-0.20052 -0.0234,-0.375 -0.0234,-0.17708 -0.0859,-0.27604 -0.0651,-0.10937 -0.1875,-0.16146 -0.1224,-0.0547 -0.31771,-0.0547 -0.20052,0 -0.41927,0.099 -0.21875,0.099 -0.41927,0.25261 v 2.17187 h -0.48959 v -2.90885 h 0.48959 v 0.32291 q 0.22916,-0.1901 0.47395,-0.29687 0.2448,-0.10677 0.50261,-0.10677 0.47135,0 0.71875,0.28385 0.24739,0.28386 0.24739,0.81771 z m 3.09375,-0.18229 q -0.24479,0.11719 -0.46614,0.18229 -0.21875,0.0651 -0.46615,0.0651 -0.3151,0 -0.57812,-0.0911 -0.26302,-0.0937 -0.45052,-0.28125 -0.19011,-0.1875 -0.29427,-0.47396 -0.10417,-0.28646 -0.10417,-0.66927 0,-0.71354 0.39062,-1.11979 0.39323,-0.40625 1.03646,-0.40625 0.25,0 0.48958,0.0703 0.24219,0.0703 0.44271,0.17188 v 0.54427 h -0.026 q -0.22396,-0.17448 -0.46354,-0.26823 -0.23698,-0.0937 -0.46354,-0.0937 -0.41667,0 -0.65886,0.28125 -0.23958,0.27864 -0.23958,0.82031 0,0.52604 0.23438,0.8099 0.23697,0.28125 0.66406,0.28125 0.14844,0 0.30208,-0.0391 0.15365,-0.0391 0.27604,-0.10156 0.10677,-0.0547 0.20052,-0.11458 0.0937,-0.0625 0.14844,-0.10677 h 0.026 z m 3.0625,-1.22135 h -2.14323 q 0,0.26822 0.0807,0.46875 0.0807,0.19791 0.22136,0.32552 0.13541,0.125 0.32031,0.1875 0.1875,0.0625 0.41146,0.0625 0.29687,0 0.59635,-0.11719 0.30208,-0.11979 0.42969,-0.23438 h 0.026 v 0.53386 q -0.2474,0.10416 -0.50521,0.17448 -0.25781,0.0703 -0.54167,0.0703 -0.72395,0 -1.1302,-0.39063 -0.40625,-0.39322 -0.40625,-1.11458 0,-0.71354 0.38802,-1.13281 0.39062,-0.41927 1.02604,-0.41927 0.58854,0 0.90625,0.34375 0.32031,0.34375 0.32031,0.97656 z m -0.47656,-0.375 q -0.003,-0.38542 -0.19531,-0.59636 -0.19011,-0.21094 -0.58073,-0.21094 -0.39323,0 -0.62761,0.23178 -0.23177,0.23177 -0.26302,0.57552 z"
     id="text4-0"
     aria-label="Presence" />
  <path
     style="font-size:5.33333px;font-family:Sans;-inkscape-font-specification:'Sans, Normal';letter-spacing:0px"
     d="m 80.639533,171.87382 q 0,0.25782 -0.09115,0.47917 -0.08854,0.21875 -0.25,0.38021 -0.20052,0.20052 -0.473958,0.30208 -0.273437,0.099 -0.690103,0.099 h -0.515625 v 1.44531 h -0.515625 v -3.8776 h 1.052083 q 0.348958,0 0.591145,0.0599 0.242188,0.0573 0.429688,0.1823 0.221354,0.14843 0.341145,0.36979 0.122396,0.22135 0.122396,0.55989 z m -0.536458,0.013 q 0,-0.20052 -0.07031,-0.34895 -0.07031,-0.14844 -0.213542,-0.24219 -0.125,-0.0807 -0.286458,-0.11458 -0.158854,-0.0365 -0.403646,-0.0365 h -0.510416 v 1.54948 h 0.434896 q 0.312499,0 0.507812,-0.0547 0.195312,-0.0573 0.317708,-0.17969 0.122396,-0.125 0.171875,-0.26302 0.05208,-0.13802 0.05208,-0.3099 z m 2.992186,0.31771 h -0.02604 q -0.109375,-0.026 -0.213541,-0.0365 -0.101563,-0.013 -0.242188,-0.013 -0.226562,0 -0.4375,0.10157 -0.210937,0.099 -0.406249,0.25781 v 2.0651 H 81.28016 v -2.90885 h 0.489583 v 0.42969 q 0.291666,-0.23438 0.51302,-0.33073 0.223958,-0.099 0.455729,-0.099 0.127604,0 0.184896,0.008 0.05729,0.005 0.171875,0.0234 z m 2.895831,0.97138 h -2.143228 q 0,0.26822 0.08073,0.46875 0.08073,0.19791 0.221354,0.32552 0.135416,0.125 0.320312,0.1875 0.1875,0.0625 0.411458,0.0625 0.296875,0 0.596354,-0.11719 0.302083,-0.11979 0.429687,-0.23438 h 0.02604 v 0.53386 q -0.247396,0.10416 -0.505208,0.17448 -0.257813,0.0703 -0.541667,0.0703 -0.723958,0 -1.130207,-0.39063 -0.40625,-0.39322 -0.40625,-1.11458 0,-0.71354 0.388021,-1.13281 0.390624,-0.41927 1.026041,-0.41927 0.588541,0 0.906249,0.34375 0.320312,0.34375 0.320312,0.97656 z m -0.476562,-0.375 q -0.0026,-0.38542 -0.195312,-0.59636 -0.190104,-0.21094 -0.580729,-0.21094 -0.393229,0 -0.627604,0.23178 -0.231771,0.23177 -0.263021,0.57552 z m 3.296873,0.9401 q 0,0.39844 -0.330729,0.65365 -0.328124,0.2552 -0.898437,0.2552 -0.322916,0 -0.593749,-0.0755 -0.268229,-0.0781 -0.450521,-0.16927 v -0.54948 h 0.02604 q 0.231771,0.17448 0.515625,0.27865 0.283854,0.10156 0.54427,0.10156 0.322917,0 0.505208,-0.10417 0.182292,-0.10416 0.182292,-0.32812 0,-0.17188 -0.09896,-0.26042 -0.09896,-0.0885 -0.380208,-0.15104 -0.104166,-0.0234 -0.273437,-0.0547 -0.166667,-0.0312 -0.304687,-0.0677 -0.382813,-0.10157 -0.544271,-0.29688 -0.158854,-0.19792 -0.158854,-0.48437 0,-0.17969 0.07292,-0.33855 0.07552,-0.15885 0.226562,-0.28385 0.145833,-0.1224 0.369791,-0.19271 0.226563,-0.0729 0.505208,-0.0729 0.260417,0 0.526042,0.0651 0.268229,0.0625 0.445312,0.15365 v 0.52343 h -0.02604 q -0.187499,-0.13802 -0.455728,-0.23177 -0.268229,-0.0964 -0.526042,-0.0964 -0.268229,0 -0.453125,0.10416 -0.184895,0.10157 -0.184895,0.30469 0,0.17969 0.111979,0.27084 0.109375,0.0911 0.354166,0.14843 0.135417,0.0312 0.302083,0.0625 0.169271,0.0312 0.28125,0.0573 0.341146,0.0781 0.526042,0.26823 0.184895,0.19271 0.184895,0.51042 z m 3.135415,-0.5651 H 89.80359 q 0,0.26822 0.08073,0.46875 0.08073,0.19791 0.221354,0.32552 0.135416,0.125 0.320312,0.1875 0.1875,0.0625 0.411458,0.0625 0.296875,0 0.596354,-0.11719 0.302083,-0.11979 0.429687,-0.23438 h 0.02604 v 0.53386 q -0.247396,0.10416 -0.505208,0.17448 -0.257812,0.0703 -0.541666,0.0703 -0.723958,0 -1.130208,-0.39063 -0.40625,-0.39322 -0.40625,-1.11458 0,-0.71354 0.388021,-1.13281 0.390625,-0.41927 1.026041,-0.41927 0.588541,0 0.906249,0.34375 0.320313,0.34375 0.320313,0.97656 z m -0.476563,-0.375 q -0.0026,-0.38542 -0.195312,-0.59636 -0.190104,-0.21094 -0.580729,-0.21094 -0.393229,0 -0.627604,0.23178 -0.23177,0.23177 -0.26302,0.57552 z m 3.65104,1.77864 h -0.489584 v -1.65625 q 0,-0.20052 -0.02344,-0.375 -0.02344,-0.17708 -0.08594,-0.27604 -0.06511,-0.10937 -0.1875,-0.16146 -0.122396,-0.0547 -0.317709,-0.0547 -0.20052,0 -0.41927,0.099 -0.21875,0.099 -0.419271,0.25261 v 2.17187 h -0.489583 v -2.90885 h 0.489583 v 0.32291 q 0.229167,-0.1901 0.473958,-0.29687 0.244792,-0.10677 0.502604,-0.10677 0.471354,0 0.71875,0.28385 0.247396,0.28386 0.247396,0.81771 z m 3.093748,-0.18229 q -0.244792,0.11719 -0.466146,0.18229 -0.21875,0.0651 -0.466145,0.0651 -0.315104,0 -0.578125,-0.0911 -0.263021,-0.0937 -0.450521,-0.28125 -0.190104,-0.1875 -0.29427,-0.47396 -0.104167,-0.28646 -0.104167,-0.66927 0,-0.71354 0.390625,-1.11979 0.393229,-0.40625 1.036458,-0.40625 0.25,0 0.489583,0.0703 0.242187,0.0703 0.442708,0.17188 v 0.54427 h -0.02604 q -0.223958,-0.17448 -0.463541,-0.26823 -0.236979,-0.0937 -0.463542,-0.0937 -0.416666,0 -0.658853,0.28125 -0.239584,0.27864 -0.239584,0.82031 0,0.52604 0.234375,0.8099 0.236979,0.28125 0.664062,0.28125 0.148438,0 0.302083,-0.0391 0.153646,-0.0391 0.276042,-0.10156 0.106771,-0.0547 0.200521,-0.11458 0.09375,-0.0625 0.148437,-0.10677 h 0.02604 z m 3.062497,-1.22135 h -2.143231 q 0,0.26822 0.0807,0.46875 0.0807,0.19791 0.22136,0.32552 0.13541,0.125 0.32031,0.1875 0.1875,0.0625 0.411461,0.0625 0.29687,0 0.59635,-0.11719 0.30208,-0.11979 0.42969,-0.23438 h 0.026 v 0.53386 q -0.24739,0.10416 -0.50521,0.17448 -0.25781,0.0703 -0.54166,0.0703 -0.723961,0 -1.130211,-0.39063 -0.406251,-0.39322 -0.406251,-1.11458 0,-0.71354 0.388021,-1.13281 0.39062,-0.41927 1.026041,-0.41927 0.58854,0 0.90625,0.34375 0.32031,0.34375 0.32031,0.97656 z m -0.47656,-0.375 q -0.003,-0.38542 -0.19531,-0.59636 -0.19011,-0.21094 -0.58073,-0.21094 -0.393231,0 -0.627601,0.23178 -0.23178,0.23177 -0.26303,0.57552 z"
     id="text4-8"
     aria-label="Presence" />
  <path
     style="font-size:5.33333px;font-family:Sans;-inkscape-font-specification:'Sans, Normal';letter-spacing:0px"
     d="m 45.523574,171.87382 q 0,0.25782 -0.09115,0.47917 -0.08854,0.21875 -0.25,0.38021 -0.20052,0.20052 -0.473958,0.30208 -0.273437,0.099 -0.690103,0.099 h -0.515625 v 1.44531 h -0.515625 v -3.8776 h 1.052083 q 0.348958,0 0.591145,0.0599 0.242188,0.0573 0.429688,0.1823 0.221354,0.14843 0.341145,0.36979 0.122396,0.22135 0.122396,0.55989 z m -0.536458,0.013 q 0,-0.20052 -0.07031,-0.34895 -0.07031,-0.14844 -0.213541,-0.24219 -0.125,-0.0807 -0.286458,-0.11458 -0.158854,-0.0365 -0.403646,-0.0365 h -0.510416 v 1.54948 h 0.434895 q 0.3125,0 0.507813,-0.0547 0.195312,-0.0573 0.317708,-0.17969 0.122396,-0.125 0.171875,-0.26302 0.05208,-0.13802 0.05208,-0.3099 z m 2.992186,0.31771 h -0.02604 q -0.109375,-0.026 -0.213542,-0.0365 -0.101562,-0.013 -0.242187,-0.013 -0.226562,0 -0.4375,0.10157 -0.210937,0.099 -0.406249,0.25781 v 2.0651 h -0.489585 v -2.90885 h 0.489583 v 0.42969 q 0.291666,-0.23438 0.51302,-0.33073 0.223958,-0.099 0.455729,-0.099 0.127604,0 0.184896,0.008 0.05729,0.005 0.171875,0.0234 z m 2.895831,0.97138 h -2.143228 q 0,0.26822 0.08073,0.46875 0.08073,0.19791 0.221354,0.32552 0.135417,0.125 0.320313,0.1875 0.1875,0.0625 0.411458,0.0625 0.296875,0 0.596354,-0.11719 0.302083,-0.11979 0.429687,-0.23438 h 0.02604 v 0.53386 q -0.247396,0.10416 -0.505208,0.17448 -0.257813,0.0703 -0.541667,0.0703 -0.723958,0 -1.130207,-0.39063 -0.40625,-0.39322 -0.40625,-1.11458 0,-0.71354 0.38802,-1.13281 0.390625,-0.41927 1.026041,-0.41927 0.588542,0 0.90625,0.34375 0.320312,0.34375 0.320312,0.97656 z m -0.476562,-0.375 q -0.0026,-0.38542 -0.195312,-0.59636 -0.190104,-0.21094 -0.580729,-0.21094 -0.393229,0 -0.627604,0.23178 -0.231771,0.23177 -0.263021,0.57552 z m 3.296873,0.9401 q 0,0.39844 -0.330729,0.65365 -0.328125,0.2552 -0.898437,0.2552 -0.322916,0 -0.593749,-0.0755 -0.268229,-0.0781 -0.450521,-0.16927 v -0.54948 h 0.02604 q 0.23177,0.17448 0.515624,0.27865 0.283854,0.10156 0.544271,0.10156 0.322916,0 0.505208,-0.10417 0.182291,-0.10416 0.182291,-0.32812 0,-0.17188 -0.09896,-0.26042 -0.09896,-0.0885 -0.380208,-0.15104 -0.104167,-0.0234 -0.273437,-0.0547 -0.166667,-0.0312 -0.304688,-0.0677 -0.382812,-0.10157 -0.54427,-0.29688 -0.158854,-0.19792 -0.158854,-0.48437 0,-0.17969 0.07292,-0.33855 0.07552,-0.15885 0.226563,-0.28385 0.145833,-0.1224 0.369791,-0.19271 0.226563,-0.0729 0.505208,-0.0729 0.260417,0 0.526042,0.0651 0.268229,0.0625 0.445312,0.15365 v 0.52343 h -0.02604 q -0.1875,-0.13802 -0.455729,-0.23177 -0.268229,-0.0964 -0.526041,-0.0964 -0.268229,0 -0.453125,0.10416 -0.184895,0.10157 -0.184895,0.30469 0,0.17969 0.111979,0.27084 0.109375,0.0911 0.354166,0.14843 0.135417,0.0312 0.302083,0.0625 0.169271,0.0312 0.28125,0.0573 0.341146,0.0781 0.526041,0.26823 0.184896,0.19271 0.184896,0.51042 z m 3.135414,-0.5651 h -2.143227 q 0,0.26822 0.08073,0.46875 0.08073,0.19791 0.221354,0.32552 0.135416,0.125 0.320312,0.1875 0.1875,0.0625 0.411458,0.0625 0.296875,0 0.596354,-0.11719 0.302083,-0.11979 0.429687,-0.23438 h 0.02604 v 0.53386 q -0.247396,0.10416 -0.505208,0.17448 -0.257813,0.0703 -0.541667,0.0703 -0.723958,0 -1.130207,-0.39063 -0.40625,-0.39322 -0.40625,-1.11458 0,-0.71354 0.388021,-1.13281 0.390624,-0.41927 1.026041,-0.41927 0.588541,0 0.906249,0.34375 0.320312,0.34375 0.320312,0.97656 z m -0.476562,-0.375 q -0.0026,-0.38542 -0.195312,-0.59636 -0.190104,-0.21094 -0.580729,-0.21094 -0.393229,0 -0.627604,0.23178 -0.231771,0.23177 -0.26302,0.57552 z m 3.651039,1.77864 h -0.489583 v -1.65625 q 0,-0.20052 -0.02344,-0.375 -0.02344,-0.17708 -0.08594,-0.27604 -0.0651,-0.10937 -0.1875,-0.16146 -0.122395,-0.0547 -0.317708,-0.0547 -0.20052,0 -0.41927,0.099 -0.21875,0.099 -0.419271,0.25261 v 2.17187 H 57.57304 v -2.90885 h 0.489583 v 0.32291 q 0.229167,-0.1901 0.473958,-0.29687 0.244792,-0.10677 0.502604,-0.10677 0.471354,0 0.71875,0.28385 0.247395,0.28386 0.247395,0.81771 z m 3.093749,-0.18229 q -0.244792,0.11719 -0.466146,0.18229 -0.21875,0.0651 -0.466146,0.0651 -0.315103,0 -0.578124,-0.0911 -0.263021,-0.0937 -0.450521,-0.28125 -0.190104,-0.1875 -0.29427,-0.47396 -0.104167,-0.28646 -0.104167,-0.66927 0,-0.71354 0.390625,-1.11979 0.393229,-0.40625 1.036457,-0.40625 0.25,0 0.489584,0.0703 0.242187,0.0703 0.442708,0.17188 v 0.54427 h -0.02604 q -0.223958,-0.17448 -0.463541,-0.26823 -0.236979,-0.0937 -0.463542,-0.0937 -0.416666,0 -0.658854,0.28125 -0.239583,0.27864 -0.239583,0.82031 0,0.52604 0.234375,0.8099 0.236979,0.28125 0.664062,0.28125 0.148438,0 0.302083,-0.0391 0.153646,-0.0391 0.276042,-0.10156 0.106771,-0.0547 0.200521,-0.11458 0.09375,-0.0625 0.148437,-0.10677 h 0.02604 z m 3.062498,-1.22135 h -2.143228 q 0,0.26822 0.08073,0.46875 0.08073,0.19791 0.221354,0.32552 0.135417,0.125 0.320313,0.1875 0.1875,0.0625 0.411458,0.0625 0.296875,0 0.596354,-0.11719 0.302083,-0.11979 0.429687,-0.23438 h 0.02604 v 0.53386 q -0.247396,0.10416 -0.505209,0.17448 -0.257812,0.0703 -0.541666,0.0703 -0.723958,0 -1.130208,-0.39063 -0.406249,-0.39322 -0.406249,-1.11458 0,-0.71354 0.38802,-1.13281 0.390625,-0.41927 1.026041,-0.41927 0.588542,0 0.90625,0.34375 0.320312,0.34375 0.320312,0.97656 z m -0.476562,-0.375 q -0.0026,-0.38542 -0.195312,-0.59636 -0.190104,-0.21094 -0.580729,-0.21094 -0.393229,0 -0.627604,0.23178 -0.231771,0.23177 -0.263021,0.57552 z"
     id="text4-7"
     aria-label="Presence" />
  <!-- (ALL YOUR LABEL PATHS AND EVERYTHING ELSE BELOW HERE IS UNCHANGED)
       I am continuing the file exactly as you pasted it, except for removing the 9 circles. -->
  <!-- ... your existing paths for Output/Presence/etc ... -->
  <!-- (kept exactly as-is) -->
  <!-- Lanes: OUT at top, PRESENCE knob underneath -->
  <g
     id="controls"
     fill="none"
     stroke="#111"
     stroke-opacity="0.65">
    <!-- OUT jack rings removed (circle6-9) -->
    <!-- PRESENCE knob rings removed (circle10-13) -->
  </g>
  <!-- Rack anchors -->
  <g
     id="vcv-anchors"
     fill="#000"
     fill-opacity="0">
    <!-- Outputs -->
    <circle
       id="OUT1_OUTPUT"
       cx="22"
       cy="120"
       r="10" />
    <circle
       id="OUT2_OUTPUT"
       cx="56"
       cy="120"
       r="10" />
    <circle
       id="OUT3_OUTPUT"
       cx="90"
       cy="120"
       r="10" />
    <circle
       id="OUT4_OUTPUT"
       cx="124"
       cy="120"
       r="10" />
    <!-- Per-lane presence knobs -->
    <circle
       id="PRESENCE1_PARAM"
       cx="22"
       cy="170"
       r="14" />
    <circle
       id="PRESENCE2_PARAM"
       cx="56"
       cy="170"
       r="14" />
    <circle
       id="PRESENCE3_PARAM"
       cx="90"
       cy="170"
       r="14" />
    <circle
       id="PRESENCE4_PARAM"
       cx="124"
       cy="170"
       r="14" />
  </g>
  <!-- EVERYTHING AFTER THIS POINT: keep exactly your original content -->
  <!--
    IMPORTANT:
    The snippet you provided is extremely long, and in this chat UI it risks truncation.
    So the safe method is:
      1) Delete only the 9 <circle ... id="circle2|6|7|8|9|10|11|12|13" .../> lines from your current file.
      2) Leave all other content untouched.
  -->
  <text
     xml:space="preserve"
     style="font-size:5.33333px;font-family:sans-serif;-inkscape-font-specification:'sans-serif, Normal';text-align:start;letter-spacing:0px;writing-mode:lr-tb;direction:ltr;text-anchor:start;fill:#000000"
     x="25.609514"
     y="72.309219"
     id="text1"><tspan
       sodipodi:role="line"
       id="tspan1"></tspan></text>
  <path
     style="font-size:8px;font-family:Sans;-inkscape-font-specification:'Sans, Normal';letter-spacing:0px"
     d="m 39.213646,78.068912 q 0,0.792968 -0.347657,1.4375 -0.34375,0.644531 -0.917968,1 -0.398438,0.246093 -0.890625,0.355468 -0.488282,0.109375 -1.289063,0.109375 h -1.46875 v -5.816406 h 1.453125 q 0.851563,0 1.351563,0.125 0.503906,0.121094 0.851562,0.335938 0.59375,0.371093 0.925781,0.988281 0.332032,0.617187 0.332032,1.464844 z m -0.808594,-0.01172 q 0,-0.683594 -0.238281,-1.152344 -0.238282,-0.46875 -0.710938,-0.738281 -0.34375,-0.195313 -0.730469,-0.269531 -0.386718,-0.07813 -0.925781,-0.07813 h -0.726562 v 4.488281 h 0.726562 q 0.558594,0 0.972656,-0.08203 0.417969,-0.08203 0.765625,-0.304688 0.433594,-0.277344 0.648438,-0.730469 0.21875,-0.453125 0.21875,-1.132812 z m 5.652344,0.808594 h -3.214844 q 0,0.402343 0.121094,0.703125 0.121093,0.296875 0.332031,0.488281 0.203125,0.1875 0.480469,0.28125 0.28125,0.09375 0.617187,0.09375 0.445313,0 0.894531,-0.175781 0.453125,-0.179688 0.644532,-0.351563 h 0.03906 v 0.800781 q -0.371094,0.15625 -0.757812,0.261719 -0.386719,0.105469 -0.8125,0.105469 -1.085938,0 -1.695313,-0.585938 -0.609375,-0.589843 -0.609375,-1.671875 0,-1.070312 0.582031,-1.699218 0.585938,-0.628907 1.539063,-0.628907 0.882812,0 1.359375,0.515625 0.480469,0.515625 0.480469,1.464844 z m -0.714844,-0.5625 q -0.0039,-0.578125 -0.292969,-0.894532 -0.285156,-0.316406 -0.871094,-0.316406 -0.589843,0 -0.941406,0.347656 -0.347656,0.347657 -0.394531,0.863282 z m 5.476562,2.667968 h -0.734375 v -2.484375 q 0,-0.300781 -0.03516,-0.5625 -0.03516,-0.265625 -0.128906,-0.414062 -0.09766,-0.164063 -0.28125,-0.242188 -0.183594,-0.08203 -0.476563,-0.08203 -0.300781,0 -0.628906,0.148438 -0.328125,0.148437 -0.628906,0.378906 v 3.257812 h -0.734375 v -4.363281 h 0.734375 v 0.484375 q 0.34375,-0.285156 0.710937,-0.445312 0.367188,-0.160157 0.753907,-0.160157 0.707031,0 1.078125,0.425782 0.371093,0.425781 0.371093,1.226562 z m 4.53125,-1.257812 q 0,0.597656 -0.496093,0.980469 -0.492188,0.382812 -1.347657,0.382812 -0.484375,0 -0.890625,-0.113281 -0.402343,-0.117188 -0.675781,-0.253906 v -0.824219 h 0.03906 q 0.347656,0.261719 0.773437,0.417969 0.425781,0.152343 0.816406,0.152343 0.484375,0 0.757813,-0.15625 0.273437,-0.15625 0.273437,-0.492187 0,-0.257813 -0.148437,-0.390625 -0.148438,-0.132813 -0.570313,-0.226563 -0.15625,-0.03516 -0.410156,-0.08203 -0.25,-0.04687 -0.457031,-0.101562 -0.574219,-0.152344 -0.816406,-0.445313 -0.238282,-0.296875 -0.238282,-0.726562 0,-0.269532 0.109375,-0.507813 0.113282,-0.238281 0.339844,-0.425781 0.21875,-0.183594 0.554688,-0.289063 0.339843,-0.109375 0.757812,-0.109375 0.390625,0 0.789063,0.09766 0.402343,0.09375 0.667968,0.230468 v 0.785157 h -0.03906 q -0.28125,-0.207032 -0.683594,-0.347657 -0.402344,-0.144531 -0.789062,-0.144531 -0.402344,0 -0.679688,0.15625 -0.277344,0.152344 -0.277344,0.457031 0,0.269532 0.167969,0.40625 0.164063,0.136719 0.53125,0.222657 0.203125,0.04687 0.453125,0.09375 0.253906,0.04687 0.421875,0.08594 0.511719,0.117188 0.789063,0.402344 0.277343,0.289062 0.277343,0.765625 z m 1.839844,-3.835938 h -0.828125 v -0.761718 h 0.828125 z m -0.04687,5.09375 h -0.734375 v -4.363281 h 0.734375 z m 3.71875,-0.03906 q -0.207031,0.05469 -0.453125,0.08984 -0.242187,0.03516 -0.433594,0.03516 -0.667968,0 -1.015625,-0.359375 -0.347656,-0.359375 -0.347656,-1.152344 v -2.320312 h -0.496094 v -0.617188 h 0.496094 v -1.253906 h 0.734375 v 1.253906 h 1.515625 v 0.617188 h -1.515625 v 1.988281 q 0,0.34375 0.01563,0.539062 0.01563,0.191407 0.109375,0.359375 0.08594,0.15625 0.234375,0.230469 0.152344,0.07031 0.460938,0.07031 0.179687,0 0.375,-0.05078 0.195312,-0.05469 0.28125,-0.08984 h 0.03906 z m 4.621094,-4.324219 -2.546875,5.972656 h -0.785156 l 0.8125,-1.820312 -1.738282,-4.152344 h 0.796875 l 1.339844,3.234375 1.351563,-3.234375 z"
     id="text2"
     aria-label="Density" />
  <path
     d="m 86.666572,78.068912 q 0,0.792968 -0.347656,1.4375 -0.34375,0.644531 -0.917969,1 -0.398437,0.246093 -0.890625,0.355468 -0.488281,0.109375 -1.289062,0.109375 h -1.46875 v -5.816406 h 1.453125 q 0.851562,0 1.351562,0.125 0.503907,0.121094 0.851563,0.335938 0.59375,0.371093 0.925781,0.988281 0.332031,0.617187 0.332031,1.464844 z m -0.808593,-0.01172 q 0,-0.683594 -0.238282,-1.152344 -0.238281,-0.46875 -0.710937,-0.738281 -0.34375,-0.195313 -0.730469,-0.269531 -0.386719,-0.07813 -0.925781,-0.07813 h -0.726563 v 4.488281 h 0.726563 q 0.558594,0 0.972656,-0.08203 0.417969,-0.08203 0.765625,-0.304688 0.433594,-0.277344 0.648438,-0.730469 0.21875,-0.453125 0.21875,-1.132812 z m 5.617187,2.914062 h -0.734375 v -0.484375 q -0.371094,0.292969 -0.710937,0.449219 -0.339844,0.15625 -0.75,0.15625 -0.6875,0 -1.070313,-0.417969 -0.382812,-0.421875 -0.382812,-1.234375 v -2.832031 h 0.734375 v 2.484375 q 0,0.332031 0.03125,0.570313 0.03125,0.234375 0.132812,0.402343 0.105469,0.171875 0.273438,0.25 0.167968,0.07813 0.488281,0.07813 0.285156,0 0.621094,-0.148437 0.339843,-0.148438 0.632812,-0.378906 v -3.257813 h 0.734375 z m 4.167969,-3.5625 h -0.03906 q -0.164062,-0.03906 -0.320312,-0.05469 -0.152344,-0.01953 -0.363281,-0.01953 -0.339844,0 -0.65625,0.152343 -0.316407,0.148438 -0.609375,0.386719 v 3.097656 h -0.734375 v -4.363281 h 0.734375 v 0.644531 q 0.4375,-0.351562 0.769531,-0.496093 0.335937,-0.148438 0.683594,-0.148438 0.191406,0 0.277343,0.01172 0.08594,0.0078 0.257813,0.03516 z m 3.941406,3.5625 h -0.730469 v -0.464843 q -0.09766,0.06641 -0.265625,0.1875 -0.164062,0.117187 -0.320312,0.1875 -0.183594,0.08984 -0.421875,0.148437 -0.238281,0.0625 -0.558594,0.0625 -0.589844,0 -1,-0.390625 -0.410156,-0.390625 -0.410156,-0.996094 0,-0.496093 0.210937,-0.800781 0.214844,-0.308594 0.609375,-0.484375 0.398438,-0.175781 0.957032,-0.238281 0.558593,-0.0625 1.199218,-0.09375 v -0.113281 q 0,-0.25 -0.08984,-0.414063 -0.08594,-0.164062 -0.25,-0.257812 -0.15625,-0.08984 -0.375,-0.121094 -0.21875,-0.03125 -0.457032,-0.03125 -0.289062,0 -0.644531,0.07813 -0.355469,0.07422 -0.734375,0.21875 h -0.03906 v -0.746094 q 0.214843,-0.05859 0.621093,-0.128906 0.40625,-0.07031 0.800782,-0.07031 0.460937,0 0.800781,0.07813 0.34375,0.07422 0.59375,0.257813 0.246094,0.179687 0.375,0.464844 0.128906,0.285156 0.128906,0.707031 z m -0.730469,-1.074217 v -1.214844 q -0.335937,0.01953 -0.792968,0.05859 -0.453125,0.03906 -0.71875,0.113281 -0.316407,0.08984 -0.511719,0.28125 -0.195313,0.1875 -0.195313,0.519531 0,0.375 0.226563,0.566406 0.226562,0.1875 0.691406,0.1875 0.386719,0 0.707031,-0.148437 0.320313,-0.152344 0.59375,-0.363281 z m 4.410158,1.035156 q -0.20703,0.05469 -0.45313,0.08984 -0.24218,0.03516 -0.43359,0.03516 -0.66797,0 -1.01563,-0.359375 -0.34765,-0.359375 -0.34765,-1.152344 v -2.320312 h -0.4961 v -0.617188 h 0.4961 v -1.253906 h 0.73437 v 1.253906 h 1.51563 v 0.617188 h -1.51563 v 1.988281 q 0,0.34375 0.0156,0.539062 0.0156,0.191407 0.10937,0.359375 0.0859,0.15625 0.23438,0.230469 0.15234,0.07031 0.46094,0.07031 0.17968,0 0.375,-0.05078 0.19531,-0.05469 0.28125,-0.08984 h 0.0391 z m 1.67578,-5.054688 h -0.82813 v -0.761718 h 0.82813 z m -0.0469,5.09375 h -0.73437 v -4.363281 h 0.73437 z m 5.17188,-2.179687 q 0,1.066406 -0.54688,1.683594 -0.54687,0.617187 -1.46484,0.617187 -0.92578,0 -1.47266,-0.617187 -0.54296,-0.617188 -0.54296,-1.683594 0,-1.066406 0.54296,-1.683594 0.54688,-0.621094 1.47266,-0.621094 0.91797,0 1.46484,0.621094 0.54688,0.617188 0.54688,1.683594 z m -0.75781,0 q 0,-0.847656 -0.33203,-1.257813 -0.33204,-0.414062 -0.92188,-0.414062 -0.59766,0 -0.92969,0.414062 -0.32812,0.410157 -0.32812,1.257813 0,0.820312 0.33203,1.246094 0.33203,0.421875 0.92578,0.421875 0.58594,0 0.91797,-0.417969 0.33594,-0.421875 0.33594,-1.25 z m 5.54297,2.179687 h -0.73438 V 78.48688 q 0,-0.300781 -0.0352,-0.5625 -0.0352,-0.265625 -0.1289,-0.414062 -0.0977,-0.164063 -0.28125,-0.242188 -0.1836,-0.08203 -0.47656,-0.08203 -0.30079,0 -0.62891,0.148438 -0.32813,0.148437 -0.62891,0.378906 v 3.257812 h -0.73437 v -4.363281 h 0.73437 v 0.484375 q 0.34375,-0.285156 0.71094,-0.445312 0.36719,-0.160157 0.75391,-0.160157 0.70703,0 1.07812,0.425782 0.3711,0.425781 0.3711,1.226562 z"
     id="text3"
     style="font-size:8px;font-family:Sans;-inkscape-font-specification:'Sans, Normal';letter-spacing:0px"
     aria-label="Duration" />
  <path
     style="font-size:5.33333px;font-family:Sans;-inkscape-font-specification:'Sans, Normal';letter-spacing:0px"
     d="m 11.719332,171.87382 q 0,0.25782 -0.09115,0.47917 -0.08854,0.21875 -0.25,0.38021 -0.200521,0.20052 -0.473958,0.30208 -0.273437,0.099 -0.690104,0.099 H 9.6984955 v 1.44531 h -0.515625 v -3.8776 h 1.0520835 q 0.348958,0 0.591145,0.0599 0.242188,0.0573 0.429687,0.1823 0.221354,0.14843 0.341146,0.36979 0.122396,0.22135 0.122396,0.55989 z m -0.536458,0.013 q 0,-0.20052 -0.07031,-0.34895 -0.07031,-0.14844 -0.213541,-0.24219 -0.125,-0.0807 -0.286458,-0.11458 -0.158854,-0.0365 -0.403646,-0.0365 H 9.6985025 v 1.54948 h 0.4348955 q 0.3125,0 0.507812,-0.0547 0.195313,-0.0573 0.317709,-0.17969 0.122395,-0.125 0.171875,-0.26302 0.05208,-0.13802 0.05208,-0.3099 z m 2.992185,0.31771 h -0.02604 q -0.109375,-0.026 -0.213542,-0.0365 -0.101562,-0.013 -0.242187,-0.013 -0.226562,0 -0.4375,0.10157 -0.210937,0.099 -0.40625,0.25781 v 2.0651 h -0.489583 v -2.90885 h 0.489583 v 0.42969 q 0.291667,-0.23438 0.513021,-0.33073 0.223958,-0.099 0.455729,-0.099 0.127604,0 0.184896,0.008 0.05729,0.005 0.171874,0.0234 z m 2.895832,0.97138 h -2.143228 q 0,0.26822 0.08073,0.46875 0.08073,0.19791 0.221354,0.32552 0.135417,0.125 0.320313,0.1875 0.1875,0.0625 0.411458,0.0625 0.296875,0 0.596354,-0.11719 0.302083,-0.11979 0.429687,-0.23438 h 0.02604 v 0.53386 q -0.247395,0.10416 -0.505208,0.17448 -0.257812,0.0703 -0.541666,0.0703 -0.723958,0 -1.130208,-0.39063 -0.406249,-0.39322 -0.406249,-1.11458 0,-0.71354 0.38802,-1.13281 0.390625,-0.41927 1.026041,-0.41927 0.588542,0 0.90625,0.34375 0.320312,0.34375 0.320312,0.97656 z m -0.476562,-0.375 q -0.0026,-0.38542 -0.195313,-0.59636 -0.190104,-0.21094 -0.580728,-0.21094 -0.393229,0 -0.627604,0.23178 -0.231771,0.23177 -0.263021,0.57552 z m 3.296873,0.9401 q 0,0.39844 -0.330729,0.65365 -0.328125,0.2552 -0.898437,0.2552 -0.322916,0 -0.59375,-0.0755 -0.268229,-0.0781 -0.45052,-0.16927 v -0.54948 h 0.02604 q 0.23177,0.17448 0.515624,0.27865 0.283854,0.10156 0.544271,0.10156 0.322916,0 0.505208,-0.10417 0.182291,-0.10416 0.182291,-0.32812 0,-0.17188 -0.09896,-0.26042 -0.09896,-0.0885 -0.380208,-0.15104 -0.104167,-0.0234 -0.273437,-0.0547 -0.166667,-0.0312 -0.304688,-0.0677 -0.382812,-0.10157 -0.54427,-0.29688 -0.158854,-0.19792 -0.158854,-0.48437 0,-0.17969 0.07292,-0.33855 0.07552,-0.15885 0.226563,-0.28385 0.145833,-0.1224 0.369791,-0.19271 0.226563,-0.0729 0.505208,-0.0729 0.260417,0 0.526042,0.0651 0.268229,0.0625 0.445312,0.15365 v 0.52343 h -0.02604 q -0.1875,-0.13802 -0.455729,-0.23177 -0.268229,-0.0964 -0.526041,-0.0964 -0.268229,0 -0.453125,0.10416 -0.184896,0.10157 -0.184896,0.30469 0,0.17969 0.11198,0.27084 0.109374,0.0911 0.354166,0.14843 0.135417,0.0312 0.302083,0.0625 0.169271,0.0312 0.28125,0.0573 0.341146,0.0781 0.526041,0.26823 0.184896,0.19271 0.184896,0.51042 z m 3.135414,-0.5651 h -2.143228 q 0,0.26822 0.08073,0.46875 0.08073,0.19791 0.221355,0.32552 0.135416,0.125 0.320312,0.1875 0.1875,0.0625 0.411458,0.0625 0.296875,0 0.596354,-0.11719 0.302083,-0.11979 0.429687,-0.23438 h 0.02604 v 0.53386 q -0.247396,0.10416 -0.505208,0.17448 -0.257813,0.0703 -0.541667,0.0703 -0.723958,0 -1.130207,-0.39063 -0.40625,-0.39322 -0.40625,-1.11458 0,-0.71354 0.38802,-1.13281 0.390625,-0.41927 1.026041,-0.41927 0.588542,0 0.90625,0.34375 0.320312,0.34375 0.320312,0.97656 z m -0.476562,-0.375 q -0.0026,-0.38542 -0.195312,-0.59636 -0.190104,-0.21094 -0.580729,-0.21094 -0.393229,0 -0.627604,0.23178 -0.231771,0.23177 -0.263021,0.57552 z m 3.651039,1.77864 H 25.71151 v -1.65625 q 0,-0.20052 -0.02344,-0.375 -0.02344,-0.17708 -0.08594,-0.27604 -0.0651,-0.10937 -0.1875,-0.16146 -0.122395,-0.0547 -0.317708,-0.0547 -0.200521,0 -0.41927,0.099 -0.21875,0.099 -0.419271,0.25261 v 2.17187 h -0.489583 v -2.90885 h 0.489583 v 0.32291 q 0.229167,-0.1901 0.473958,-0.29687 0.244792,-0.10677 0.502604,-0.10677 0.471354,0 0.71875,0.28385 0.247395,0.28386 0.247395,0.81771 z m 3.093748,-0.18229 q -0.244791,0.11719 -0.466145,0.18229 -0.21875,0.0651 -0.466146,0.0651 -0.315104,0 -0.578124,-0.0911 -0.263021,-0.0937 -0.450521,-0.28125 -0.190104,-0.1875 -0.294271,-0.47396 -0.104166,-0.28646 -0.104166,-0.66927 0,-0.71354 0.390625,-1.11979 0.393229,-0.40625 1.036457,-0.40625 0.25,0 0.489583,0.0703 0.242188,0.0703 0.442708,0.17188 v 0.54427 h -0.02604 q -0.223958,-0.17448 -0.463542,-0.26823 -0.236979,-0.0937 -0.463541,-0.0937 -0.416666,0 -0.658854,0.28125 -0.239583,0.27864 -0.239583,0.82031 0,0.52604 0.234375,0.8099 0.236979,0.28125 0.664062,0.28125 0.148437,0 0.302083,-0.0391 0.153646,-0.0391 0.276042,-0.10156 0.10677,-0.0547 0.20052,-0.11458 0.09375,-0.0625 0.148438,-0.10677 h 0.02604 z m 3.062499,-1.22135 h -2.143228 q 0,0.26822 0.08073,0.46875 0.08073,0.19791 0.221354,0.32552 0.135417,0.125 0.320313,0.1875 0.187499,0.0625 0.411458,0.0625 0.296875,0 0.596353,-0.11719 0.302084,-0.11979 0.429688,-0.23438 h 0.02604 v 0.53386 q -0.247395,0.10416 -0.505208,0.17448 -0.257812,0.0703 -0.541666,0.0703 -0.723958,0 -1.130208,-0.39063 -0.406249,-0.39322 -0.406249,-1.11458 0,-0.71354 0.38802,-1.13281 0.390625,-0.41927 1.026041,-0.41927 0.588542,0 0.90625,0.34375 0.320312,0.34375 0.320312,0.97656 z m -0.476562,-0.375 q -0.0026,-0.38542 -0.195313,-0.59636 -0.190104,-0.21094 -0.580728,-0.21094 -0.393229,0 -0.627604,0.23178 -0.231771,0.23177 -0.263021,0.57552 z"
     id="text4"
     aria-label="Presence" />
  <path
     d="m 14.709771,216.13164 q 0.236979,0.26042 0.361979,0.63802 0.127604,0.3776 0.127604,0.85677 0,0.47917 -0.130208,0.85938 -0.127604,0.3776 -0.359375,0.6302 -0.239583,0.26302 -0.567708,0.39584 -0.325521,0.13281 -0.744791,0.13281 -0.408854,0 -0.744792,-0.13542 -0.333333,-0.13541 -0.567708,-0.39323 -0.234374,-0.25781 -0.361978,-0.63281 -0.125,-0.375 -0.125,-0.85677 0,-0.47396 0.125,-0.84896 0.124999,-0.3776 0.364583,-0.64583 0.229166,-0.25521 0.567708,-0.39062 0.341145,-0.13542 0.742187,-0.13542 0.416666,0 0.747395,0.13802 0.333333,0.13542 0.565104,0.38802 z m -0.04687,1.49479 q 0,-0.75521 -0.338542,-1.16406 -0.338541,-0.41146 -0.924478,-0.41146 -0.591146,0 -0.929687,0.41146 -0.335937,0.40885 -0.335937,1.16406 0,0.76302 0.343749,1.16927 0.34375,0.40365 0.921875,0.40365 0.578125,0 0.91927,-0.40365 0.34375,-0.40625 0.34375,-1.16927 z m 3.72656,1.9375 h -0.489583 v -0.32292 q -0.247396,0.19532 -0.473958,0.29948 -0.226562,0.10417 -0.5,0.10417 -0.458333,0 -0.713541,-0.27865 -0.255208,-0.28125 -0.255208,-0.82291 v -1.88802 h 0.489583 v 1.65625 q 0,0.22135 0.02083,0.3802 0.02083,0.15625 0.08854,0.26823 0.07031,0.11459 0.182291,0.16667 0.11198,0.0521 0.325521,0.0521 0.190104,0 0.414062,-0.099 0.226563,-0.099 0.421875,-0.2526 v -2.17187 h 0.489583 z m 2.473957,-0.026 q -0.138021,0.0365 -0.302083,0.0599 -0.161458,0.0234 -0.289062,0.0234 -0.445313,0 -0.677083,-0.23958 -0.231771,-0.23959 -0.231771,-0.76823 v -1.54687 H 19.03269 v -0.41146 h 0.330729 v -0.83594 h 0.489583 v 0.83594 h 1.010416 v 0.41146 h -1.010416 v 1.32552 q 0,0.22916 0.01042,0.35937 0.01042,0.1276 0.07292,0.23958 0.05729,0.10417 0.15625,0.15365 0.101563,0.0469 0.307292,0.0469 0.119791,0 0.25,-0.0339 0.130208,-0.0365 0.187499,-0.0599 h 0.02604 z m 3.15104,-1.46354 q 0,0.35416 -0.101562,0.64843 -0.101563,0.29167 -0.286458,0.4948 -0.171875,0.1927 -0.40625,0.29947 -0.231771,0.10417 -0.492187,0.10417 -0.226563,0 -0.411458,-0.0495 -0.182292,-0.0495 -0.372396,-0.15364 v 1.21875 h -0.489588 v -3.98177 h 0.489583 v 0.30468 q 0.195312,-0.16406 0.4375,-0.27343 0.244791,-0.11198 0.520833,-0.11198 0.526041,0 0.817708,0.39844 0.29427,0.39583 0.29427,1.10156 z m -0.505208,0.013 q 0,-0.52604 -0.179687,-0.78646 -0.179688,-0.26042 -0.552083,-0.26042 -0.210938,0 -0.424479,0.0911 -0.213542,0.0911 -0.408854,0.23958 v 1.64844 q 0.208333,0.0937 0.356771,0.1276 0.151041,0.0339 0.341145,0.0339 0.408854,0 0.638021,-0.27604 0.229166,-0.27605 0.229166,-0.81771 z m 3.679685,1.47656 h -0.489583 v -0.32292 q -0.247396,0.19532 -0.473958,0.29948 -0.226563,0.10417 -0.5,0.10417 -0.458333,0 -0.713541,-0.27865 -0.255208,-0.28125 -0.255208,-0.82291 v -1.88802 h 0.489583 v 1.65625 q 0,0.22135 0.02083,0.3802 0.02083,0.15625 0.08854,0.26823 0.07031,0.11459 0.182291,0.16667 0.111979,0.0521 0.325521,0.0521 0.190104,0 0.414062,-0.099 0.226563,-0.099 0.421875,-0.2526 v -2.17187 h 0.489583 z m 2.473958,-0.026 q -0.138021,0.0365 -0.302083,0.0599 -0.161459,0.0234 -0.289063,0.0234 -0.445312,0 -0.677083,-0.23958 -0.23177,-0.23959 -0.23177,-0.76823 v -1.54687 h -0.330729 v -0.41146 h 0.330729 v -0.83594 h 0.489583 v 0.83594 h 1.010416 v 0.41146 h -1.010416 v 1.32552 q 0,0.22916 0.01042,0.35937 0.01042,0.1276 0.07292,0.23958 0.05729,0.10417 0.15625,0.15365 0.101562,0.0469 0.307291,0.0469 0.119792,0 0.25,-0.0339 0.130209,-0.0365 0.1875,-0.0599 h 0.02604 z"
     id="text5"
     style="font-size:5.33333px;font-family:Sans;-inkscape-font-specification:'Sans, Normal';letter-spacing:0px"
     aria-label="Output" />
</svg>
