<?xml version="1.0" encoding="UTF-8" standalone="no"?>
<svg
   width="150"
   height="380"
   viewBox="0 0 150 380"
   version="1.1"
   id="svg13"
   sodipodi:docname="Phrasing.svg"
   inkscape:version="1.4.2 (ebf0e940, 2025-05-08)"
   xmlns:inkscape="http://www.inkscape.org/namespaces/inkscape"
   xmlns:sodipodi="http://sodipodi.sourceforge.net/DTD/sodipodi-0.dtd"
   xmlns="http://www.w3.org/2000/svg"
   xmlns:svg="http://www.w3.org/2000/svg">
  <sodipodi:namedview
     id="namedview13"
     pagecolor="#ffffff"
     bordercolor="#000000"
     borderopacity="0.25"
     inkscape:showpageshadow="2"
     inkscape:pageopacity="0.0"
     inkscape:pagecheckerboard="0"
     inkscape:deskcolor="#d1d1d1"
     inkscape:zoom="2.6552632"
     inkscape:cx="97.542121"
     inkscape:cy="179.45491"
     inkscape:window-width="1760"
     inkscape:window-height="1182"
     inkscape:window-x="301"
     inkscape:window-y="63"
     inkscape:window-maximized="0"
     inkscape:current-layer="svg13" />
  <defs
     id="defs2">
    <linearGradient
       id="bgGrad"
       x1="0"
       y1="0"
       x2="0"
       y2="380"
       gradientUnits="userSpaceOnUse">
      <stop
         offset="0%"
         stop-color="#d0d0d0"
         id="stop1" />
      <stop
         offset="100%"
         stop-color="#b8b8b8"
         id="stop2" />
    </linearGradient>
  </defs>
  <!-- Panel background -->
  <rect
     x="0"
     y="0"
     width="150"
     height="380"
     fill="url(#bgGrad)"
     id="rect2" />
  <!-- THEREELPEET logo (centered) -->
  <!-- Nudge with translate(x,y) if needed -->
  <g
     id="thereelpeetLogo"
     transform="translate(-1.8040634,-8)">
    <!-- THEREELPEET (black) -->
    <path
       d="m 31.73366,28.186202 h -2.770842 v 6.838563 h -1.031253 v -6.838563 h -2.770842 v -0.91667 h 6.572937 z m 9.32398,6.838563 h -1.031253 v -3.796887 h -3.869804 v 3.796887 H 35.12533 v -7.755233 h 1.031253 v 3.041677 h 3.869804 v -3.041677 h 1.031253 z m 9.542731,0 H 45.49098 v -7.755233 h 5.109391 v 0.91667 h -4.078137 v 2.125007 h 4.078137 v 0.916669 h -4.078137 v 2.880218 h 4.078137 z m 10.402109,0 h -1.338546 l -2.593758,-3.083343 h -1.45313 v 3.083343 h -1.031253 v -7.755233 h 2.171882 q 0.703127,0 1.171878,0.09375 0.468752,0.08854 0.843753,0.322917 0.421876,0.265626 0.656252,0.671877 0.239584,0.401043 0.239584,1.020837 0,0.838544 -0.421876,1.406254 -0.421877,0.562502 -1.161462,0.848961 z m -2.411466,-5.572934 q 0,-0.333335 -0.119792,-0.588544 -0.114584,-0.260417 -0.385418,-0.437501 -0.223959,-0.151042 -0.531252,-0.208334 -0.307293,-0.0625 -0.723961,-0.0625 h -1.213545 v 2.927092 h 1.04167 q 0.489585,0 0.854169,-0.08333 0.364585,-0.08854 0.619794,-0.322918 0.234376,-0.218751 0.343751,-0.500001 0.114584,-0.28646 0.114584,-0.723961 z m 10.870859,5.572934 h -5.109391 v -7.755233 h 5.109391 v 0.91667 h -4.078138 v 2.125007 h 4.078138 v 0.916669 h -4.078138 v 2.880218 h 4.078138 z m 9.094814,0 h -5.109391 v -7.755233 h 5.109391 v 0.91667 H 74.47855 v 2.125007 h 4.078137 v 0.916669 H 74.47855 v 2.880218 h 4.078137 z m 8.891689,0 h -4.906265 v -7.755233 h 1.031253 v 6.838564 h 3.875012 z m 8.454185,-5.411475 q 0,0.515626 -0.182292,0.958336 -0.177084,0.437501 -0.500002,0.760419 -0.401043,0.401043 -0.94792,0.604169 -0.546876,0.197917 -1.380212,0.197917 h -1.031254 v 2.890634 h -1.031253 v -7.755233 h 2.104173 q 0.697919,0 1.182296,0.119792 0.484376,0.114584 0.859378,0.364585 0.442709,0.296876 0.682293,0.739586 0.244793,0.442709 0.244793,1.119795 z m -1.07292,0.02604 q 0,-0.401042 -0.140626,-0.697918 -0.140625,-0.296876 -0.427084,-0.484377 -0.250001,-0.161459 -0.572919,-0.229167 -0.317709,-0.07292 -0.807294,-0.07292 h -1.020837 v 3.098968 h 0.869795 q 0.625002,0 1.015628,-0.109375 0.390626,-0.114584 0.635419,-0.359377 0.244792,-0.25 0.343751,-0.526043 0.104167,-0.276042 0.104167,-0.619794 z m 9.891689,5.385434 h -5.109391 v -7.755233 h 5.109391 v 0.91667 h -4.07814 v 2.125007 h 4.07814 v 0.916669 h -4.07814 v 2.880218 h 4.07814 z m 9.09481,0 h -5.10939 v -7.755233 h 5.10939 v 0.91667 H 109.738 v 2.125007 h 4.07814 v 0.916669 H 109.738 v 2.880218 h 4.07814 z m 9.51669,-6.838563 h -2.77084 v 6.838563 h -1.03125 v -6.838563 h -2.77084 v -0.91667 h 6.57293 z"
       id="text8"
       style="font-size:10.6667px;-inkscape-font-specification:'sans-serif, Normal';letter-spacing:2.35px"
       aria-label="THEREELPEET" />
    <!-- THEREELPEET (red shadow/offset) -->
    <path
       d="m 33.027844,29.246693 h -2.770842 v 6.838563 h -1.031253 v -6.838563 h -2.770843 v -0.91667 h 6.572938 z m 9.32398,6.838563 h -1.031253 v -3.796887 h -3.869804 v 3.796887 h -1.031253 v -7.755233 h 1.031253 V 31.3717 h 3.869804 v -3.041677 h 1.031253 z m 9.542731,0 h -5.109391 v -7.755233 h 5.109391 v 0.91667 H 47.816417 V 31.3717 h 4.078138 v 0.916669 h -4.078138 v 2.880218 h 4.078138 z m 10.402108,0 H 60.958117 L 58.364359,33.001913 H 56.91123 v 3.083343 h -1.031254 v -7.755233 h 2.171882 q 0.703127,0 1.171879,0.09375 0.468751,0.08854 0.843753,0.322917 0.421876,0.265626 0.656252,0.671878 0.239584,0.401042 0.239584,1.020836 0,0.838544 -0.421877,1.406255 -0.421876,0.562501 -1.161462,0.848961 z m -2.411466,-5.572934 q 0,-0.333334 -0.119792,-0.588544 -0.114583,-0.260417 -0.385418,-0.437501 -0.223959,-0.151042 -0.531251,-0.208334 -0.307293,-0.0625 -0.723961,-0.0625 H 56.91123 v 2.927092 h 1.04167 q 0.489584,0 0.854169,-0.08333 0.364584,-0.08854 0.619794,-0.322918 0.234375,-0.218751 0.343751,-0.500001 0.114583,-0.28646 0.114583,-0.723961 z m 10.87086,5.572934 h -5.109391 v -7.755233 h 5.109391 v 0.91667 H 66.677919 V 31.3717 h 4.078138 v 0.916669 h -4.078138 v 2.880218 h 4.078138 z m 9.094814,0 H 74.74148 v -7.755233 h 5.109391 v 0.91667 H 75.772733 V 31.3717 h 4.078138 v 0.916669 h -4.078138 v 2.880218 h 4.078138 z m 8.891689,0 h -4.906266 v -7.755233 h 1.031254 v 6.838564 h 3.875012 z m 8.454185,-5.411475 q 0,0.515626 -0.182293,0.958336 -0.177084,0.437502 -0.500001,0.760419 -0.401043,0.401043 -0.94792,0.604169 -0.546877,0.197917 -1.380213,0.197917 h -1.031253 v 2.890634 h -1.031253 v -7.755233 h 2.104173 q 0.697919,0 1.182296,0.119792 0.484376,0.114584 0.859377,0.364585 0.44271,0.296876 0.682294,0.739586 0.244793,0.442709 0.244793,1.119795 z m -1.072921,0.02604 q 0,-0.401043 -0.140625,-0.697919 -0.140625,-0.296876 -0.427085,-0.484377 -0.25,-0.161459 -0.572918,-0.229167 -0.317709,-0.07292 -0.807294,-0.07292 h -1.020837 v 3.098968 h 0.869795 q 0.625001,0 1.015628,-0.109375 0.390626,-0.114584 0.635418,-0.359376 0.244793,-0.250001 0.343751,-0.526044 0.104167,-0.276042 0.104167,-0.619793 z m 9.891686,5.385433 h -5.10939 v -7.755233 h 5.10939 v 0.91667 h -4.07813 v 2.125007 h 4.07813 v 0.916669 h -4.07813 v 2.880218 h 4.07813 z m 9.09481,0 h -5.10939 v -7.755233 h 5.10939 v 0.91667 h -4.07813 v 2.125007 h 4.07813 v 0.916669 h -4.07813 v 2.880218 h 4.07813 z m 9.5167,-6.838563 h -2.77084 v 6.838563 h -1.03126 v -6.838563 h -2.77084 v -0.91667 h 6.57294 z"
       id="text8-1"
       style="font-size:10.6667px;-inkscape-font-specification:'sans-serif, Normal';letter-spacing:2.35px;fill:#ff0000"
       aria-label="THEREELPEET" />
  </g>
  <!-- GLOBAL knob (density) centered under logo -->
  <g
     id="globalControl"
     fill="none"
     stroke="#111"
     stroke-opacity="0.65">
    <circle
       cx="75"
       cy="58"
       r="16"
       stroke-width="1.2"
       id="circle2" />
  </g>
  <g
     id="vcv-global-anchor"
     fill="#000"
     fill-opacity="0">
    <circle
       id="DENSITY_PARAM"
       cx="75"
       cy="58"
       r="16" />
  </g>
  <!-- Vertical lanes with color identity -->
  <!-- Lowered a bit to make room for global knob -->
  <g
     id="lanes">
    <rect
       x="6"
       y="90"
       width="32"
       height="278"
       rx="7"
       ry="7"
       fill="#d94a4a"
       fill-opacity="0.18"
       stroke="#000"
       stroke-opacity="0.10"
       stroke-width="1"
       id="rect3" />
    <rect
       x="40"
       y="90"
       width="32"
       height="278"
       rx="7"
       ry="7"
       fill="#4a78d9"
       fill-opacity="0.18"
       stroke="#000"
       stroke-opacity="0.10"
       stroke-width="1"
       id="rect4" />
    <rect
       x="74"
       y="90"
       width="32"
       height="278"
       rx="7"
       ry="7"
       fill="#5fa86e"
       fill-opacity="0.18"
       stroke="#000"
       stroke-opacity="0.10"
       stroke-width="1"
       id="rect5" />
    <rect
       x="108"
       y="90"
       width="32"
       height="278"
       rx="7"
       ry="7"
       fill="#d9b44a"
       fill-opacity="0.18"
       stroke="#000"
       stroke-opacity="0.10"
       stroke-width="1"
       id="rect6" />
  </g>
  <path
     d="m 49.735366,188.01041 q 0.236979,0.26042 0.361979,0.63802 0.127604,0.37761 0.127604,0.85677 0,0.47917 -0.130208,0.85938 -0.127604,0.3776 -0.359375,0.63021 -0.239583,0.26302 -0.567708,0.39583 -0.325521,0.13281 -0.744791,0.13281 -0.408854,0 -0.744791,-0.13541 -0.333334,-0.13542 -0.567708,-0.39323 -0.234375,-0.25782 -0.361979,-0.63282 -0.125,-0.375 -0.125,-0.85677 0,-0.47395 0.125,-0.84895 0.125,-0.37761 0.364583,-0.64584 0.229166,-0.2552 0.567708,-0.39062 0.341145,-0.13542 0.742187,-0.13542 0.416666,0 0.747395,0.13802 0.333333,0.13542 0.565104,0.38802 z m -0.04687,1.49479 q 0,-0.7552 -0.338541,-1.16406 -0.338542,-0.41146 -0.924479,-0.41146 -0.591145,0 -0.929687,0.41146 -0.335937,0.40886 -0.335937,1.16406 0,0.76302 0.34375,1.16927 0.343749,0.40365 0.921874,0.40365 0.578125,0 0.91927,-0.40365 0.34375,-0.40625 0.34375,-1.16927 z m 3.72656,1.9375 h -0.489583 v -0.32291 q -0.247395,0.19531 -0.473958,0.29948 -0.226562,0.10416 -0.499999,0.10416 -0.458334,0 -0.713542,-0.27864 -0.255208,-0.28125 -0.255208,-0.82292 v -1.88802 h 0.489583 v 1.65625 q 0,0.22135 0.02083,0.38021 0.02083,0.15625 0.08854,0.26823 0.07031,0.11458 0.182292,0.16666 0.111979,0.0521 0.32552,0.0521 0.190104,0 0.414063,-0.099 0.226562,-0.099 0.421874,-0.25261 v -2.17187 h 0.489583 z m 2.473957,-0.026 q -0.13802,0.0365 -0.302083,0.0599 -0.161458,0.0234 -0.289062,0.0234 -0.445312,0 -0.677083,-0.23958 -0.231771,-0.23958 -0.231771,-0.76823 v -1.54687 H 54.05828 v -0.41146 h 0.330729 v -0.83594 h 0.489583 v 0.83594 h 1.010416 v 0.41146 h -1.010416 v 1.32552 q 0,0.22917 0.01042,0.35937 0.01042,0.12761 0.07292,0.23959 0.05729,0.10416 0.156249,0.15364 0.101563,0.0469 0.307292,0.0469 0.119791,0 0.25,-0.0339 0.130208,-0.0365 0.1875,-0.0599 h 0.02604 z m 3.15104,-1.46354 q 0,0.35417 -0.101562,0.64844 -0.101563,0.29166 -0.286458,0.49479 -0.171875,0.19271 -0.40625,0.29948 -0.231771,0.10416 -0.492187,0.10416 -0.226563,0 -0.411458,-0.0495 -0.182292,-0.0495 -0.372396,-0.15365 v 1.21875 h -0.489583 v -3.98177 h 0.489583 v 0.30469 q 0.195312,-0.16406 0.4375,-0.27344 0.244791,-0.11198 0.520833,-0.11198 0.526041,0 0.817708,0.39844 0.29427,0.39583 0.29427,1.10156 z m -0.505208,0.013 q 0,-0.52604 -0.179687,-0.78646 -0.179687,-0.26041 -0.552083,-0.26041 -0.210937,0 -0.424479,0.0911 -0.213542,0.0911 -0.408854,0.23959 v 1.64843 q 0.208333,0.0937 0.356771,0.12761 0.151041,0.0339 0.341145,0.0339 0.408854,0 0.638021,-0.27604 0.229166,-0.27604 0.229166,-0.81771 z m 3.679685,1.47656 h -0.489583 v -0.32291 q -0.247396,0.19531 -0.473958,0.29948 -0.226562,0.10416 -0.5,0.10416 -0.458333,0 -0.713541,-0.27864 -0.255208,-0.28125 -0.255208,-0.82292 v -1.88802 h 0.489583 v 1.65625 q 0,0.22135 0.02083,0.38021 0.02083,0.15625 0.08854,0.26823 0.07031,0.11458 0.182291,0.16666 0.11198,0.0521 0.325521,0.0521 0.190104,0 0.414062,-0.099 0.226563,-0.099 0.421875,-0.25261 v -2.17187 h 0.489583 z m 2.473958,-0.026 q -0.138021,0.0365 -0.302083,0.0599 -0.161458,0.0234 -0.289062,0.0234 -0.445313,0 -0.677083,-0.23958 -0.231771,-0.23958 -0.231771,-0.76823 v -1.54687 h -0.330729 v -0.41146 h 0.330729 v -0.83594 h 0.489583 v 0.83594 h 1.010416 v 0.41146 h -1.010416 v 1.32552 q 0,0.22917 0.01042,0.35937 0.01042,0.12761 0.07292,0.23959 0.05729,0.10416 0.15625,0.15364 0.101563,0.0469 0.307292,0.0469 0.119791,0 0.249999,-0.0339 0.130209,-0.0365 0.1875,-0.0599 h 0.02604 z"
     id="text19-3"
     style="font-size:5.33333px;-inkscape-font-specification:'sans-serif, Normal';letter-spacing:0px"
     aria-label="Output" />
  <path
     d="m 85.838435,188.01041 q 0.236979,0.26042 0.361979,0.63802 0.127604,0.37761 0.127604,0.85677 0,0.47917 -0.130208,0.85938 -0.127604,0.3776 -0.359375,0.63021 -0.239583,0.26302 -0.567708,0.39583 -0.32552,0.13281 -0.744791,0.13281 -0.408854,0 -0.744791,-0.13541 -0.333333,-0.13542 -0.567708,-0.39323 -0.234375,-0.25782 -0.361979,-0.63282 -0.125,-0.375 -0.125,-0.85677 0,-0.47395 0.125,-0.84895 0.125,-0.37761 0.364583,-0.64584 0.229167,-0.2552 0.567708,-0.39062 0.341146,-0.13542 0.742187,-0.13542 0.416667,0 0.747396,0.13802 0.333333,0.13542 0.565103,0.38802 z m -0.04687,1.49479 q 0,-0.7552 -0.338541,-1.16406 -0.338542,-0.41146 -0.924479,-0.41146 -0.591145,0 -0.929687,0.41146 -0.335937,0.40886 -0.335937,1.16406 0,0.76302 0.34375,1.16927 0.34375,0.40365 0.921874,0.40365 0.578125,0 0.919271,-0.40365 0.343749,-0.40625 0.343749,-1.16927 z m 3.726561,1.9375 h -0.489583 v -0.32291 q -0.247396,0.19531 -0.473958,0.29948 -0.226563,0.10416 -0.5,0.10416 -0.458333,0 -0.713541,-0.27864 -0.255209,-0.28125 -0.255209,-0.82292 v -1.88802 h 0.489583 v 1.65625 q 0,0.22135 0.02083,0.38021 0.02083,0.15625 0.08854,0.26823 0.07031,0.11458 0.182292,0.16666 0.111979,0.0521 0.325521,0.0521 0.190104,0 0.414062,-0.099 0.226562,-0.099 0.421875,-0.25261 v -2.17187 h 0.489583 z m 2.473957,-0.026 q -0.138021,0.0365 -0.302084,0.0599 -0.161458,0.0234 -0.289062,0.0234 -0.445312,0 -0.677083,-0.23958 -0.231771,-0.23958 -0.231771,-0.76823 v -1.54687 H 90.16135 v -0.41146 h 0.330728 v -0.83594 h 0.489584 v 0.83594 h 1.010416 v 0.41146 h -1.010416 v 1.32552 q 0,0.22917 0.01042,0.35937 0.01042,0.12761 0.07292,0.23959 0.05729,0.10416 0.15625,0.15364 0.101562,0.0469 0.307291,0.0469 0.119792,0 0.25,-0.0339 0.130208,-0.0365 0.1875,-0.0599 h 0.02604 z m 3.15104,-1.46354 q 0,0.35417 -0.101563,0.64844 -0.101562,0.29166 -0.286458,0.49479 -0.171875,0.19271 -0.40625,0.29948 -0.23177,0.10416 -0.492187,0.10416 -0.226562,0 -0.411458,-0.0495 -0.182292,-0.0495 -0.372396,-0.15365 v 1.21875 h -0.489583 v -3.98177 h 0.489583 v 0.30469 q 0.195313,-0.16406 0.4375,-0.27344 0.244792,-0.11198 0.520833,-0.11198 0.526042,0 0.817708,0.39844 0.294271,0.39583 0.294271,1.10156 z m -0.505208,0.013 q 0,-0.52604 -0.179688,-0.78646 -0.179687,-0.26041 -0.552083,-0.26041 -0.210937,0 -0.424479,0.0911 -0.213541,0.0911 -0.408854,0.23959 v 1.64843 q 0.208334,0.0937 0.356771,0.12761 0.151042,0.0339 0.341146,0.0339 0.408854,0 0.63802,-0.27604 0.229167,-0.27604 0.229167,-0.81771 z m 3.679684,1.47656 h -0.489583 v -0.32291 q -0.247395,0.19531 -0.473958,0.29948 -0.226562,0.10416 -0.499999,0.10416 -0.458333,0 -0.713542,-0.27864 -0.255208,-0.28125 -0.255208,-0.82292 v -1.88802 h 0.489583 v 1.65625 q 0,0.22135 0.02083,0.38021 0.02083,0.15625 0.08854,0.26823 0.07031,0.11458 0.182292,0.16666 0.111979,0.0521 0.32552,0.0521 0.190104,0 0.414063,-0.099 0.226562,-0.099 0.421874,-0.25261 v -2.17187 h 0.489583 z m 2.473956,-0.026 q -0.13802,0.0365 -0.30208,0.0599 -0.16146,0.0234 -0.28906,0.0234 -0.445315,0 -0.677086,-0.23958 -0.231771,-0.23958 -0.231771,-0.76823 v -1.54687 h -0.330729 v -0.41146 h 0.330729 v -0.83594 h 0.489583 v 0.83594 h 1.010414 v 0.41146 h -1.010414 v 1.32552 q 0,0.22917 0.01042,0.35937 0.01042,0.12761 0.07292,0.23959 0.05729,0.10416 0.15625,0.15364 0.10156,0.0469 0.30729,0.0469 0.11979,0 0.25,-0.0339 0.13021,-0.0365 0.1875,-0.0599 h 0.026 z"
     id="text19-39"
     style="font-size:5.33333px;-inkscape-font-specification:'sans-serif, Normal';letter-spacing:0px"
     aria-label="Output" />
  <path
     d="m 117.35777,188.01041 q 0.23698,0.26042 0.36198,0.63802 0.1276,0.37761 0.1276,0.85677 0,0.47917 -0.13021,0.85938 -0.1276,0.3776 -0.35937,0.63021 -0.23958,0.26302 -0.56771,0.39583 -0.32552,0.13281 -0.74479,0.13281 -0.40885,0 -0.74479,-0.13541 -0.33334,-0.13542 -0.56771,-0.39323 -0.23438,-0.25782 -0.36198,-0.63282 -0.125,-0.375 -0.125,-0.85677 0,-0.47395 0.125,-0.84895 0.125,-0.37761 0.36458,-0.64584 0.22917,-0.2552 0.56771,-0.39062 0.34115,-0.13542 0.74219,-0.13542 0.41667,0 0.74739,0.13802 0.33334,0.13542 0.56511,0.38802 z m -0.0469,1.49479 q 0,-0.7552 -0.33854,-1.16406 -0.33854,-0.41146 -0.92448,-0.41146 -0.59114,0 -0.92968,0.41146 -0.33594,0.40886 -0.33594,1.16406 0,0.76302 0.34375,1.16927 0.34375,0.40365 0.92187,0.40365 0.57813,0 0.91927,-0.40365 0.34375,-0.40625 0.34375,-1.16927 z m 3.72656,1.9375 h -0.48958 v -0.32291 q -0.2474,0.19531 -0.47396,0.29948 -0.22656,0.10416 -0.5,0.10416 -0.45833,0 -0.71354,-0.27864 -0.25521,-0.28125 -0.25521,-0.82292 v -1.88802 h 0.48959 v 1.65625 q 0,0.22135 0.0208,0.38021 0.0208,0.15625 0.0885,0.26823 0.0703,0.11458 0.18229,0.16666 0.11198,0.0521 0.32552,0.0521 0.19011,0 0.41407,-0.099 0.22656,-0.099 0.42187,-0.25261 v -2.17187 h 0.48958 z m 2.47396,-0.026 q -0.13802,0.0365 -0.30208,0.0599 -0.16146,0.0234 -0.28907,0.0234 -0.44531,0 -0.67708,-0.23958 -0.23177,-0.23958 -0.23177,-0.76823 v -1.54687 h -0.33073 v -0.41146 h 0.33073 v -0.83594 h 0.48958 v 0.83594 h 1.01042 v 0.41146 h -1.01042 v 1.32552 q 0,0.22917 0.0104,0.35937 0.0104,0.12761 0.0729,0.23959 0.0573,0.10416 0.15625,0.15364 0.10156,0.0469 0.30729,0.0469 0.11979,0 0.25,-0.0339 0.13021,-0.0365 0.1875,-0.0599 h 0.026 z m 3.15104,-1.46354 q 0,0.35417 -0.10156,0.64844 -0.10156,0.29166 -0.28646,0.49479 -0.17187,0.19271 -0.40625,0.29948 -0.23177,0.10416 -0.49219,0.10416 -0.22656,0 -0.41146,-0.0495 -0.18229,-0.0495 -0.37239,-0.15365 v 1.21875 h -0.48958 v -3.98177 h 0.48958 v 0.30469 q 0.19531,-0.16406 0.4375,-0.27344 0.24479,-0.11198 0.52083,-0.11198 0.52604,0 0.81771,0.39844 0.29427,0.39583 0.29427,1.10156 z m -0.50521,0.013 q 0,-0.52604 -0.17968,-0.78646 -0.17969,-0.26041 -0.55209,-0.26041 -0.21094,0 -0.42448,0.0911 -0.21354,0.0911 -0.40885,0.23959 v 1.64843 q 0.20833,0.0937 0.35677,0.12761 0.15104,0.0339 0.34115,0.0339 0.40885,0 0.63802,-0.27604 0.22916,-0.27604 0.22916,-0.81771 z m 3.67969,1.47656 h -0.48959 v -0.32291 q -0.24739,0.19531 -0.47395,0.29948 -0.22657,0.10416 -0.5,0.10416 -0.45834,0 -0.71354,-0.27864 -0.25521,-0.28125 -0.25521,-0.82292 v -1.88802 h 0.48958 v 1.65625 q 0,0.22135 0.0208,0.38021 0.0208,0.15625 0.0886,0.26823 0.0703,0.11458 0.18229,0.16666 0.11198,0.0521 0.32552,0.0521 0.1901,0 0.41406,-0.099 0.22656,-0.099 0.42187,-0.25261 v -2.17187 h 0.48959 z m 2.47396,-0.026 q -0.13803,0.0365 -0.30209,0.0599 -0.16146,0.0234 -0.28906,0.0234 -0.44531,0 -0.67708,-0.23958 -0.23177,-0.23958 -0.23177,-0.76823 v -1.54687 h -0.33073 v -0.41146 h 0.33073 v -0.83594 h 0.48958 v 0.83594 h 1.01042 v 0.41146 h -1.01042 v 1.32552 q 0,0.22917 0.0104,0.35937 0.0104,0.12761 0.0729,0.23959 0.0573,0.10416 0.15625,0.15364 0.10156,0.0469 0.30729,0.0469 0.1198,0 0.25,-0.0339 0.13021,-0.0365 0.1875,-0.0599 h 0.026 z"
     id="text19-9"
     style="font-size:5.33333px;-inkscape-font-specification:'sans-serif, Normal';letter-spacing:0px"
     aria-label="Output" />
  <path
     d="m 113.44527,137.60227 q 0,0.25781 -0.0911,0.47917 -0.0885,0.21875 -0.25,0.38021 -0.20052,0.20052 -0.47396,0.30208 -0.27343,0.099 -0.6901,0.099 h -0.51562 v 1.44531 h -0.51563 v -3.8776 h 1.05208 q 0.34896,0 0.59115,0.0599 0.24219,0.0573 0.42969,0.18229 0.22135,0.14844 0.34114,0.3698 0.1224,0.22135 0.1224,0.55989 z m -0.53646,0.013 q 0,-0.20052 -0.0703,-0.34896 -0.0703,-0.14843 -0.21354,-0.24218 -0.125,-0.0807 -0.28646,-0.11459 -0.15886,-0.0365 -0.40365,-0.0365 h -0.51041 v 1.54948 h 0.43489 q 0.3125,0 0.50781,-0.0547 0.19532,-0.0573 0.31771,-0.17969 0.1224,-0.125 0.17188,-0.26302 0.0521,-0.13802 0.0521,-0.3099 z m 2.99219,0.31771 h -0.026 q -0.10937,-0.026 -0.21354,-0.0365 -0.10156,-0.013 -0.24219,-0.013 -0.22656,0 -0.4375,0.10156 -0.21093,0.099 -0.40624,0.25782 v 2.0651 h -0.48959 v -2.90885 h 0.48959 v 0.42968 q 0.29166,-0.23437 0.51302,-0.33073 0.22395,-0.099 0.45572,-0.099 0.12761,0 0.1849,0.008 0.0573,0.005 0.17188,0.0234 z m 2.89583,0.97135 h -2.14323 q 0,0.26823 0.0807,0.46875 0.0807,0.19792 0.22135,0.32552 0.13542,0.125 0.32031,0.1875 0.1875,0.0625 0.41146,0.0625 0.29688,0 0.59636,-0.11718 0.30208,-0.1198 0.42968,-0.23438 h 0.0261 v 0.53386 q -0.2474,0.10416 -0.50521,0.17447 -0.25782,0.0703 -0.54167,0.0703 -0.72396,0 -1.13021,-0.39063 -0.40625,-0.39323 -0.40625,-1.11458 0,-0.71354 0.38802,-1.13281 0.39063,-0.41927 1.02604,-0.41927 0.58855,0 0.90625,0.34375 0.32032,0.34375 0.32032,0.97656 z m -0.47657,-0.375 q -0.003,-0.38541 -0.19531,-0.59635 -0.1901,-0.21094 -0.58073,-0.21094 -0.39323,0 -0.6276,0.23177 -0.23177,0.23177 -0.26302,0.57552 z m 3.29688,0.94011 q 0,0.39843 -0.33073,0.65364 -0.32813,0.25521 -0.89844,0.25521 -0.32291,0 -0.59375,-0.0755 -0.26823,-0.0781 -0.45052,-0.16927 v -0.54948 h 0.026 q 0.23177,0.17448 0.51563,0.27865 0.28385,0.10156 0.54427,0.10156 0.32291,0 0.50521,-0.10417 0.18229,-0.10416 0.18229,-0.32812 0,-0.17188 -0.099,-0.26042 -0.099,-0.0885 -0.38021,-0.15104 -0.10417,-0.0234 -0.27344,-0.0547 -0.16666,-0.0312 -0.30468,-0.0677 -0.38282,-0.10156 -0.54427,-0.29687 -0.15886,-0.19792 -0.15886,-0.48438 0,-0.17968 0.0729,-0.33854 0.0755,-0.15885 0.22656,-0.28385 0.14583,-0.1224 0.36979,-0.19271 0.22657,-0.0729 0.50521,-0.0729 0.26042,0 0.52604,0.0651 0.26823,0.0625 0.44531,0.15364 v 0.52344 h -0.026 q -0.1875,-0.13802 -0.45573,-0.23177 -0.26823,-0.0964 -0.52604,-0.0964 -0.26823,0 -0.45312,0.10416 -0.1849,0.10157 -0.1849,0.30469 0,0.17969 0.11198,0.27083 0.10938,0.0911 0.35417,0.14844 0.13541,0.0312 0.30208,0.0625 0.16927,0.0312 0.28125,0.0573 0.34115,0.0781 0.52604,0.26823 0.1849,0.19271 0.1849,0.51042 z m 3.13541,-0.56511 h -2.14323 q 0,0.26823 0.0807,0.46875 0.0807,0.19792 0.22136,0.32552 0.13541,0.125 0.32031,0.1875 0.1875,0.0625 0.41146,0.0625 0.29687,0 0.59635,-0.11718 0.30208,-0.1198 0.42969,-0.23438 h 0.026 v 0.53386 q -0.2474,0.10416 -0.50521,0.17447 -0.25781,0.0703 -0.54166,0.0703 -0.72396,0 -1.13021,-0.39063 -0.40625,-0.39323 -0.40625,-1.11458 0,-0.71354 0.38802,-1.13281 0.39062,-0.41927 1.02604,-0.41927 0.58854,0 0.90625,0.34375 0.32031,0.34375 0.32031,0.97656 z m -0.47656,-0.375 q -0.003,-0.38541 -0.19531,-0.59635 -0.19011,-0.21094 -0.58073,-0.21094 -0.39323,0 -0.62761,0.23177 -0.23177,0.23177 -0.26302,0.57552 z m 3.65104,1.77865 h -0.48958 v -1.65625 q 0,-0.20052 -0.0234,-0.375 -0.0234,-0.17708 -0.0859,-0.27604 -0.0651,-0.10938 -0.1875,-0.16146 -0.12239,-0.0547 -0.31771,-0.0547 -0.20052,0 -0.41927,0.099 -0.21875,0.099 -0.41927,0.2526 v 2.17188 h -0.48958 v -2.90885 h 0.48958 v 0.32291 q 0.22917,-0.1901 0.47396,-0.29687 0.24479,-0.10677 0.5026,-0.10677 0.47136,0 0.71875,0.28385 0.2474,0.28386 0.2474,0.81771 z m 3.09375,-0.18229 q -0.24479,0.11718 -0.46615,0.18229 -0.21875,0.0651 -0.46614,0.0651 -0.31511,0 -0.57813,-0.0911 -0.26302,-0.0937 -0.45052,-0.28125 -0.1901,-0.1875 -0.29427,-0.47396 -0.10417,-0.28646 -0.10417,-0.66927 0,-0.71354 0.39063,-1.11979 0.39323,-0.40625 1.03646,-0.40625 0.25,0 0.48958,0.0703 0.24219,0.0703 0.44271,0.17188 v 0.54427 h -0.026 q -0.22396,-0.17448 -0.46355,-0.26823 -0.23697,-0.0937 -0.46354,-0.0937 -0.41666,0 -0.65885,0.28125 -0.23958,0.27864 -0.23958,0.82031 0,0.52604 0.23437,0.80989 0.23698,0.28125 0.66406,0.28125 0.14844,0 0.30209,-0.0391 0.15364,-0.0391 0.27604,-0.10156 0.10677,-0.0547 0.20052,-0.11458 0.0937,-0.0625 0.14844,-0.10678 h 0.026 z m 3.0625,-1.22136 h -2.14323 q 0,0.26823 0.0807,0.46875 0.0807,0.19792 0.22135,0.32552 0.13542,0.125 0.32031,0.1875 0.1875,0.0625 0.41146,0.0625 0.29688,0 0.59636,-0.11718 0.30208,-0.1198 0.42968,-0.23438 h 0.026 v 0.53386 q -0.24739,0.10416 -0.5052,0.17447 -0.25782,0.0703 -0.54167,0.0703 -0.72396,0 -1.13021,-0.39063 -0.40625,-0.39323 -0.40625,-1.11458 0,-0.71354 0.38802,-1.13281 0.39063,-0.41927 1.02604,-0.41927 0.58855,0 0.90625,0.34375 0.32032,0.34375 0.32032,0.97656 z m -0.47657,-0.375 q -0.003,-0.38541 -0.19531,-0.59635 -0.1901,-0.21094 -0.58073,-0.21094 -0.39323,0 -0.6276,0.23177 -0.23177,0.23177 -0.26302,0.57552 z"
     id="text18-8"
     style="font-size:5.33333px;-inkscape-font-specification:'sans-serif, Normal';letter-spacing:0px"
     aria-label="Presence" />
  <path
     d="m 79.549341,137.60227 q 0,0.25781 -0.09114,0.47917 -0.08854,0.21875 -0.25,0.38021 -0.200521,0.20052 -0.473958,0.30208 -0.273438,0.099 -0.690104,0.099 h -0.515625 v 1.44531 H 77.01289 v -3.8776 h 1.052082 q 0.348958,0 0.591146,0.0599 0.242187,0.0573 0.429687,0.18229 0.221354,0.14844 0.341146,0.3698 0.122395,0.22135 0.122395,0.55989 z m -0.536458,0.013 q 0,-0.20052 -0.07031,-0.34896 -0.07031,-0.14843 -0.213542,-0.24218 -0.125,-0.0807 -0.286458,-0.11459 -0.158854,-0.0365 -0.403645,-0.0365 h -0.510417 v 1.54948 h 0.434896 q 0.3125,0 0.507812,-0.0547 0.195312,-0.0573 0.317708,-0.17969 0.122396,-0.125 0.171875,-0.26302 0.05208,-0.13802 0.05208,-0.3099 z m 2.992188,0.31771 h -0.026 q -0.10938,-0.026 -0.21354,-0.0365 -0.10157,-0.013 -0.24219,-0.013 -0.22656,0 -0.4375,0.10156 -0.21094,0.099 -0.40625,0.25782 v 2.0651 h -0.489583 v -2.90885 h 0.489583 v 0.42968 q 0.29167,-0.23437 0.51302,-0.33073 0.22396,-0.099 0.45573,-0.099 0.1276,0 0.18489,0.008 0.0573,0.005 0.17188,0.0234 z m 2.89583,0.97135 h -2.14323 q 0,0.26823 0.0807,0.46875 0.0807,0.19792 0.22136,0.32552 0.13541,0.125 0.32031,0.1875 0.1875,0.0625 0.41146,0.0625 0.29687,0 0.59635,-0.11718 0.30208,-0.1198 0.42969,-0.23438 h 0.026 v 0.53386 q -0.2474,0.10416 -0.50521,0.17447 -0.25781,0.0703 -0.54167,0.0703 -0.72395,0 -1.1302,-0.39063 -0.40625,-0.39323 -0.40625,-1.11458 0,-0.71354 0.38802,-1.13281 0.39062,-0.41927 1.02604,-0.41927 0.58854,0 0.90625,0.34375 0.32031,0.34375 0.32031,0.97656 z m -0.47656,-0.375 q -0.003,-0.38541 -0.19531,-0.59635 -0.19011,-0.21094 -0.58073,-0.21094 -0.39323,0 -0.62761,0.23177 -0.23177,0.23177 -0.26302,0.57552 z m 3.29687,0.94011 q 0,0.39843 -0.33073,0.65364 -0.32812,0.25521 -0.89843,0.25521 -0.32292,0 -0.59375,-0.0755 -0.26823,-0.0781 -0.45053,-0.16927 v -0.54948 h 0.026 q 0.23178,0.17448 0.51563,0.27865 0.28385,0.10156 0.54427,0.10156 0.32292,0 0.50521,-0.10417 0.18229,-0.10416 0.18229,-0.32812 0,-0.17188 -0.099,-0.26042 -0.099,-0.0885 -0.38021,-0.15104 -0.10417,-0.0234 -0.27344,-0.0547 -0.16666,-0.0312 -0.30468,-0.0677 -0.38282,-0.10156 -0.54427,-0.29687 -0.15886,-0.19792 -0.15886,-0.48438 0,-0.17968 0.0729,-0.33854 0.0755,-0.15885 0.22656,-0.28385 0.14584,-0.1224 0.3698,-0.19271 0.22656,-0.0729 0.5052,-0.0729 0.26042,0 0.52604,0.0651 0.26823,0.0625 0.44532,0.15364 v 0.52344 h -0.026 q -0.1875,-0.13802 -0.45573,-0.23177 -0.26823,-0.0964 -0.52604,-0.0964 -0.26823,0 -0.45313,0.10416 -0.18489,0.10157 -0.18489,0.30469 0,0.17969 0.11197,0.27083 0.10938,0.0911 0.35417,0.14844 0.13542,0.0312 0.30208,0.0625 0.16927,0.0312 0.28125,0.0573 0.34115,0.0781 0.52605,0.26823 0.18489,0.19271 0.18489,0.51042 z m 3.13542,-0.56511 h -2.14323 q 0,0.26823 0.0807,0.46875 0.0807,0.19792 0.22135,0.32552 0.13542,0.125 0.32031,0.1875 0.1875,0.0625 0.41146,0.0625 0.29688,0 0.59636,-0.11718 0.30208,-0.1198 0.42968,-0.23438 h 0.026 v 0.53386 q -0.24739,0.10416 -0.5052,0.17447 -0.25782,0.0703 -0.54167,0.0703 -0.72396,0 -1.13021,-0.39063 -0.40625,-0.39323 -0.40625,-1.11458 0,-0.71354 0.38802,-1.13281 0.39063,-0.41927 1.02604,-0.41927 0.58854,0 0.90625,0.34375 0.32032,0.34375 0.32032,0.97656 z m -0.47657,-0.375 q -0.003,-0.38541 -0.19531,-0.59635 -0.1901,-0.21094 -0.58073,-0.21094 -0.39323,0 -0.6276,0.23177 -0.23177,0.23177 -0.26302,0.57552 z m 3.65104,1.77865 h -0.48958 v -1.65625 q 0,-0.20052 -0.0234,-0.375 -0.0234,-0.17708 -0.0859,-0.27604 -0.0651,-0.10938 -0.1875,-0.16146 -0.1224,-0.0547 -0.31771,-0.0547 -0.20052,0 -0.41927,0.099 -0.21875,0.099 -0.41927,0.2526 v 2.17188 h -0.48958 v -2.90885 h 0.48958 v 0.32291 q 0.22917,-0.1901 0.47396,-0.29687 0.24479,-0.10677 0.5026,-0.10677 0.47136,0 0.71875,0.28385 0.2474,0.28386 0.2474,0.81771 z m 3.09375,-0.18229 q -0.24479,0.11718 -0.46615,0.18229 -0.21874,0.0651 -0.46614,0.0651 -0.3151,0 -0.57813,-0.0911 -0.26302,-0.0937 -0.45052,-0.28125 -0.1901,-0.1875 -0.29427,-0.47396 -0.10416,-0.28646 -0.10416,-0.66927 0,-0.71354 0.39062,-1.11979 0.39323,-0.40625 1.03646,-0.40625 0.25,0 0.48958,0.0703 0.24219,0.0703 0.44271,0.17188 v 0.54427 h -0.026 q -0.22396,-0.17448 -0.46354,-0.26823 -0.23698,-0.0937 -0.46354,-0.0937 -0.41667,0 -0.65886,0.28125 -0.23958,0.27864 -0.23958,0.82031 0,0.52604 0.23438,0.80989 0.23698,0.28125 0.66406,0.28125 0.14844,0 0.30208,-0.0391 0.15365,-0.0391 0.27604,-0.10156 0.10677,-0.0547 0.20052,-0.11458 0.0937,-0.0625 0.14844,-0.10678 h 0.026 z m 3.062499,-1.22136 h -2.143229 q 0,0.26823 0.0807,0.46875 0.0807,0.19792 0.22136,0.32552 0.13541,0.125 0.32031,0.1875 0.1875,0.0625 0.41146,0.0625 0.29687,0 0.59635,-0.11718 0.30208,-0.1198 0.429689,-0.23438 h 0.026 v 0.53386 q -0.247399,0.10416 -0.505209,0.17447 -0.25781,0.0703 -0.54167,0.0703 -0.72396,0 -1.13021,-0.39063 -0.40625,-0.39323 -0.40625,-1.11458 0,-0.71354 0.38803,-1.13281 0.39062,-0.41927 1.02604,-0.41927 0.58854,0 0.90625,0.34375 0.320309,0.34375 0.320309,0.97656 z m -0.476559,-0.375 q -0.003,-0.38541 -0.19532,-0.59635 -0.1901,-0.21094 -0.58072,-0.21094 -0.39323,0 -0.62761,0.23177 -0.23177,0.23177 -0.26302,0.57552 z"
     id="text18-00"
     style="font-size:5.33333px;-inkscape-font-specification:'sans-serif, Normal';letter-spacing:0px"
     aria-label="Presence" />
  <path
     d="m 45.627637,137.60227 q 0,0.25781 -0.09115,0.47917 -0.08854,0.21875 -0.25,0.38021 -0.200521,0.20052 -0.473958,0.30208 -0.273437,0.099 -0.690104,0.099 H 43.606805 V 140.308 H 43.09118 v -3.8776 h 1.052083 q 0.348958,0 0.591145,0.0599 0.242187,0.0573 0.429687,0.18229 0.221354,0.14844 0.341146,0.3698 0.122396,0.22135 0.122396,0.55989 z m -0.536458,0.013 q 0,-0.20052 -0.07031,-0.34896 -0.07031,-0.14843 -0.213541,-0.24218 -0.125,-0.0807 -0.286458,-0.11459 -0.158855,-0.0365 -0.403646,-0.0365 h -0.510416 v 1.54948 H 44.0417 q 0.3125,0 0.507812,-0.0547 0.195313,-0.0573 0.317708,-0.17969 0.122396,-0.125 0.171875,-0.26302 0.05208,-0.13802 0.05208,-0.3099 z m 2.992185,0.31771 h -0.02604 q -0.109375,-0.026 -0.213542,-0.0365 -0.101562,-0.013 -0.242187,-0.013 -0.226563,0 -0.4375,0.10156 -0.210937,0.099 -0.40625,0.25782 v 2.0651 h -0.489583 v -2.90885 h 0.489583 v 0.42968 q 0.291667,-0.23437 0.513021,-0.33073 0.223958,-0.099 0.455729,-0.099 0.127604,0 0.184895,0.008 0.05729,0.005 0.171875,0.0234 z m 2.895832,0.97135 h -2.143228 q 0,0.26823 0.08073,0.46875 0.08073,0.19792 0.221354,0.32552 0.135417,0.125 0.320312,0.1875 0.1875,0.0625 0.411459,0.0625 0.296874,0 0.596353,-0.11718 0.302084,-0.1198 0.429688,-0.23438 h 0.02604 v 0.53386 q -0.247395,0.10416 -0.505208,0.17447 -0.257812,0.0703 -0.541666,0.0703 -0.723958,0 -1.130208,-0.39063 -0.40625,-0.39323 -0.40625,-1.11458 0,-0.71354 0.388021,-1.13281 0.390625,-0.41927 1.026041,-0.41927 0.588541,0 0.90625,0.34375 0.320312,0.34375 0.320312,0.97656 z m -0.476562,-0.375 q -0.0026,-0.38541 -0.195313,-0.59635 -0.190104,-0.21094 -0.580728,-0.21094 -0.393229,0 -0.627604,0.23177 -0.231771,0.23177 -0.263021,0.57552 z m 3.296873,0.94011 q 0,0.39843 -0.330729,0.65364 -0.328125,0.25521 -0.898437,0.25521 -0.322917,0 -0.59375,-0.0755 -0.268229,-0.0781 -0.45052,-0.16927 v -0.54948 h 0.02604 q 0.231771,0.17448 0.515625,0.27865 0.283854,0.10156 0.544271,0.10156 0.322916,0 0.505208,-0.10417 0.182291,-0.10416 0.182291,-0.32812 0,-0.17188 -0.09896,-0.26042 -0.09896,-0.0885 -0.380208,-0.15104 -0.104167,-0.0234 -0.273438,-0.0547 -0.166666,-0.0312 -0.304687,-0.0677 -0.382812,-0.10156 -0.54427,-0.29687 -0.158854,-0.19792 -0.158854,-0.48438 0,-0.17968 0.07292,-0.33854 0.07552,-0.15885 0.226563,-0.28385 0.145833,-0.1224 0.369791,-0.19271 0.226562,-0.0729 0.505208,-0.0729 0.260417,0 0.526041,0.0651 0.268229,0.0625 0.445313,0.15364 v 0.52344 h -0.02604 q -0.1875,-0.13802 -0.455729,-0.23177 -0.268229,-0.0964 -0.526041,-0.0964 -0.268229,0 -0.453125,0.10416 -0.184896,0.10157 -0.184896,0.30469 0,0.17969 0.111979,0.27083 0.109375,0.0911 0.354167,0.14844 0.135416,0.0312 0.302083,0.0625 0.169271,0.0312 0.28125,0.0573 0.341145,0.0781 0.526041,0.26823 0.184896,0.19271 0.184896,0.51042 z m 3.135414,-0.56511 h -2.143228 q 0,0.26823 0.08073,0.46875 0.08073,0.19792 0.221354,0.32552 0.135417,0.125 0.320313,0.1875 0.1875,0.0625 0.411458,0.0625 0.296875,0 0.596354,-0.11718 0.302083,-0.1198 0.429687,-0.23438 h 0.02604 v 0.53386 q -0.247395,0.10416 -0.505208,0.17447 -0.257812,0.0703 -0.541666,0.0703 -0.723958,0 -1.130208,-0.39063 -0.406249,-0.39323 -0.406249,-1.11458 0,-0.71354 0.38802,-1.13281 0.390625,-0.41927 1.026041,-0.41927 0.588542,0 0.90625,0.34375 0.320312,0.34375 0.320312,0.97656 z m -0.476562,-0.375 q -0.0026,-0.38541 -0.195312,-0.59635 -0.190105,-0.21094 -0.580729,-0.21094 -0.393229,0 -0.627604,0.23177 -0.231771,0.23177 -0.263021,0.57552 z m 3.651039,1.77865 h -0.489583 v -1.65625 q 0,-0.20052 -0.02344,-0.375 -0.02344,-0.17708 -0.08594,-0.27604 -0.0651,-0.10938 -0.1875,-0.16146 -0.122396,-0.0547 -0.317708,-0.0547 -0.200521,0 -0.419271,0.099 -0.218749,0.099 -0.41927,0.2526 v 2.17188 h -0.489583 v -2.90885 h 0.489583 v 0.32291 q 0.229166,-0.1901 0.473958,-0.29687 0.244791,-0.10677 0.502604,-0.10677 0.471354,0 0.718749,0.28385 0.247396,0.28386 0.247396,0.81771 z m 3.093748,-0.18229 q -0.244791,0.11718 -0.466145,0.18229 -0.21875,0.0651 -0.466146,0.0651 -0.315104,0 -0.578124,-0.0911 -0.263021,-0.0937 -0.450521,-0.28125 -0.190104,-0.1875 -0.294271,-0.47396 -0.104166,-0.28646 -0.104166,-0.66927 0,-0.71354 0.390624,-1.11979 0.393229,-0.40625 1.036458,-0.40625 0.25,0 0.489583,0.0703 0.242188,0.0703 0.442708,0.17188 v 0.54427 h -0.02604 q -0.223959,-0.17448 -0.463542,-0.26823 -0.236979,-0.0937 -0.463541,-0.0937 -0.416667,0 -0.658854,0.28125 -0.239583,0.27864 -0.239583,0.82031 0,0.52604 0.234375,0.80989 0.236979,0.28125 0.664062,0.28125 0.148437,0 0.302083,-0.0391 0.153646,-0.0391 0.276042,-0.10156 0.10677,-0.0547 0.20052,-0.11458 0.09375,-0.0625 0.148438,-0.10678 h 0.02604 z m 3.062499,-1.22136 h -2.143228 q 0,0.26823 0.08073,0.46875 0.08073,0.19792 0.221354,0.32552 0.135417,0.125 0.320312,0.1875 0.1875,0.0625 0.411459,0.0625 0.296874,0 0.596353,-0.11718 0.302084,-0.1198 0.429688,-0.23438 h 0.02604 v 0.53386 q -0.247395,0.10416 -0.505208,0.17447 -0.257812,0.0703 -0.541666,0.0703 -0.723958,0 -1.130208,-0.39063 -0.40625,-0.39323 -0.40625,-1.11458 0,-0.71354 0.388021,-1.13281 0.390625,-0.41927 1.026041,-0.41927 0.588541,0 0.90625,0.34375 0.320312,0.34375 0.320312,0.97656 z m -0.476562,-0.375 q -0.0026,-0.38541 -0.195313,-0.59635 -0.190104,-0.21094 -0.580729,-0.21094 -0.393228,0 -0.627603,0.23177 -0.231771,0.23177 -0.263021,0.57552 z"
     id="text18-0"
     style="font-size:5.33333px;-inkscape-font-specification:'sans-serif, Normal';letter-spacing:0px"
     aria-label="Presence" />
  <!-- Lanes: OUT at top, PRESENCE knob underneath -->
  <!-- Layout per lane:
       OUT y=120
       PRESENCE knob y=170
       Everything below left open for future -->
  <g
     id="controls"
     fill="none"
     stroke="#111"
     stroke-opacity="0.65">
    <!-- OUT jack rings -->
    <circle
       cx="22"
       cy="120"
       r="10"
       stroke-width="1.2"
       id="circle6" />
    <circle
       cx="56"
       cy="120"
       r="10"
       stroke-width="1.2"
       id="circle7" />
    <circle
       cx="90"
       cy="120"
       r="10"
       stroke-width="1.2"
       id="circle8" />
    <circle
       cx="124"
       cy="120"
       r="10"
       stroke-width="1.2"
       id="circle9" />
    <!-- PRESENCE knob rings -->
    <circle
       cx="22"
       cy="170"
       r="14"
       stroke-width="1.2"
       id="circle10" />
    <circle
       cx="56"
       cy="170"
       r="14"
       stroke-width="1.2"
       id="circle11" />
    <circle
       cx="90"
       cy="170"
       r="14"
       stroke-width="1.2"
       id="circle12" />
    <circle
       cx="124"
       cy="170"
       r="14"
       stroke-width="1.2"
       id="circle13" />
  </g>
  <!-- Rack anchors -->
  <g
     id="vcv-anchors"
     fill="#000"
     fill-opacity="0">
    <!-- Outputs -->
    <circle
       id="OUT1_OUTPUT"
       cx="22"
       cy="120"
       r="10" />
    <circle
       id="OUT2_OUTPUT"
       cx="56"
       cy="120"
       r="10" />
    <circle
       id="OUT3_OUTPUT"
       cx="90"
       cy="120"
       r="10" />
    <circle
       id="OUT4_OUTPUT"
       cx="124"
       cy="120"
       r="10" />
    <!-- Per-lane presence knobs -->
    <circle
       id="PRESENCE1_PARAM"
       cx="22"
       cy="170"
       r="14" />
    <circle
       id="PRESENCE2_PARAM"
       cx="56"
       cy="170"
       r="14" />
    <circle
       id="PRESENCE3_PARAM"
       cx="90"
       cy="170"
       r="14" />
    <circle
       id="PRESENCE4_PARAM"
       cx="124"
       cy="170"
       r="14" />
  </g>
  <text
     xml:space="preserve"
     style="font-size:13.3333px;font-family:sans-serif;-inkscape-font-specification:'sans-serif, Normal';text-align:start;letter-spacing:0px;writing-mode:lr-tb;direction:ltr;text-anchor:start;fill:#000000;font-weight:normal;font-style:normal;font-stretch:normal;font-variant:normal;font-variant-ligatures:normal;font-variant-caps:normal;font-variant-numeric:normal;font-variant-east-asian:normal"
     x="39.544102"
     y="78.711594"
     id="text13"><tspan
       sodipodi:role="line"
       id="tspan13"></tspan></text>
  <text
     xml:space="preserve"
     style="font-style:normal;font-variant:normal;font-weight:normal;font-stretch:normal;font-size:10.6667px;font-family:sans-serif;-inkscape-font-specification:'sans-serif, Normal';font-variant-ligatures:normal;font-variant-caps:normal;font-variant-numeric:normal;font-variant-east-asian:normal;text-align:start;letter-spacing:0px;writing-mode:lr-tb;direction:ltr;text-anchor:start;fill:#000000"
     x="41.803764"
     y="73.439049"
     id="text14"><tspan
       sodipodi:role="line"
       id="tspan14"></tspan></text>
  <text
     xml:space="preserve"
     style="font-style:normal;font-variant:normal;font-weight:normal;font-stretch:normal;font-size:10.6667px;font-family:sans-serif;-inkscape-font-specification:'sans-serif, Normal';font-variant-ligatures:normal;font-variant-caps:normal;font-variant-numeric:normal;font-variant-east-asian:normal;text-align:start;letter-spacing:0px;writing-mode:lr-tb;direction:ltr;text-anchor:start;fill:#000000"
     x="36.15461"
     y="73.062439"
     id="text15"><tspan
       sodipodi:role="line"
       id="tspan15"
       x="36.15461"
       y="73.062439" /></text>
  <path
     d="m 56.92975,80.867562 q 0,1.057295 -0.463543,1.916673 -0.458335,0.859377 -1.223963,1.333337 -0.531251,0.328126 -1.187503,0.47396 -0.651044,0.145834 -1.718756,0.145834 h -1.958339 v -7.755233 h 1.937506 q 1.13542,0 1.802089,0.166667 0.671877,0.161459 1.13542,0.447918 0.791669,0.494793 1.234379,1.317713 0.44271,0.822919 0.44271,1.953131 z m -1.078129,-0.01563 q 0,-0.911461 -0.317709,-1.536463 -0.317709,-0.625002 -0.94792,-0.984379 -0.458335,-0.260417 -0.973961,-0.359376 -0.515627,-0.104167 -1.234379,-0.104167 h -0.968753 v 5.984394 h 0.968753 q 0.744794,0 1.296879,-0.109375 0.557293,-0.109375 1.020837,-0.406251 0.578126,-0.369793 0.864586,-0.973962 0.291667,-0.604168 0.291667,-1.510421 z m 7.854191,3.885429 h -5.109391 v -7.755233 h 5.109391 v 0.916669 h -4.078137 v 2.125007 h 4.078137 v 0.91667 h -4.078137 v 2.880217 h 4.078137 z m 7.552108,0 h -1.276046 l -3.677095,-6.937522 v 6.937522 h -0.963545 v -7.755233 h 1.598964 l 3.354177,6.333353 v -6.333353 h 0.963545 z m 7.69794,-2.213549 q 0,0.453126 -0.213543,0.895836 -0.208334,0.44271 -0.588543,0.750003 -0.416668,0.333334 -0.973962,0.520835 -0.552085,0.1875 -1.333337,0.1875 -0.838545,0 -1.510422,-0.15625 -0.666668,-0.156251 -1.359379,-0.463543 v -1.291671 h 0.07292 q 0.588543,0.489585 1.359379,0.755211 0.770836,0.265625 1.447921,0.265625 0.958337,0 1.489589,-0.359376 0.53646,-0.359376 0.53646,-0.958336 0,-0.515627 -0.25521,-0.760419 -0.25,-0.244793 -0.765627,-0.38021 -0.390626,-0.104167 -0.848961,-0.171875 -0.453126,-0.06771 -0.963545,-0.171876 -1.031253,-0.218751 -1.531255,-0.744794 -0.494793,-0.531252 -0.494793,-1.380213 0,-0.973961 0.822919,-1.593755 0.82292,-0.625002 2.088549,-0.625002 0.817711,0 1.500004,0.156251 0.682294,0.15625 1.208338,0.385418 v 1.218754 h -0.07292 q -0.44271,-0.375002 -1.166671,-0.619794 -0.718752,-0.250001 -1.473963,-0.250001 -0.828127,0 -1.333337,0.343751 -0.500002,0.343751 -0.500002,0.88542 0,0.484376 0.250001,0.760419 0.250001,0.276042 0.880211,0.421876 0.333335,0.07292 0.94792,0.177084 0.614585,0.104167 1.04167,0.213542 0.864586,0.229168 1.302087,0.692711 0.437502,0.463543 0.437502,1.296879 z m 4.39064,2.213549 h -3.06251 v -0.791669 h 1.015628 V 77.773802 H 80.28399 v -0.791669 h 3.06251 v 0.791669 h -1.015629 v 6.171895 H 83.3465 Z m 7.286481,-6.838564 h -2.770842 v 6.838564 h -1.031254 v -6.838564 h -2.770842 v -0.916669 h 6.572938 z m 6.53127,-0.916669 -2.729175,4.35418 v 3.401053 H 93.403822 V 81.445689 L 90.66423,76.982133 h 1.140629 l 2.119798,3.468761 2.140632,-3.468761 z"
     id="text16"
     style="font-size:10.6667px;-inkscape-font-specification:'sans-serif, Normal';letter-spacing:0px"
     aria-label="DENSITY" />
  <path
     d="m 12.212889,137.60227 q 0,0.25781 -0.09115,0.47917 -0.08854,0.21875 -0.25,0.38021 -0.200521,0.20052 -0.473958,0.30208 -0.273438,0.099 -0.690104,0.099 H 10.192057 V 140.308 H 9.6764326 v -3.8776 h 1.0520824 q 0.348958,0 0.591146,0.0599 0.242187,0.0573 0.429687,0.18229 0.221354,0.14844 0.341146,0.3698 0.122395,0.22135 0.122395,0.55989 z m -0.536458,0.013 q 0,-0.20052 -0.07031,-0.34896 -0.07031,-0.14843 -0.213542,-0.24218 -0.124999,-0.0807 -0.286458,-0.11459 -0.158854,-0.0365 -0.403645,-0.0365 h -0.510417 v 1.54948 h 0.434896 q 0.3125,0 0.507812,-0.0547 0.195312,-0.0573 0.317708,-0.17969 0.122396,-0.125 0.171875,-0.26302 0.05208,-0.13802 0.05208,-0.3099 z m 2.992186,0.31771 h -0.02604 q -0.109375,-0.026 -0.213541,-0.0365 -0.101563,-0.013 -0.242187,-0.013 -0.226563,0 -0.4375,0.10156 -0.210938,0.099 -0.40625,0.25782 v 2.0651 h -0.489583 v -2.90885 h 0.489583 v 0.42968 q 0.291667,-0.23437 0.513021,-0.33073 0.223958,-0.099 0.455728,-0.099 0.127605,0 0.184896,0.008 0.05729,0.005 0.171875,0.0234 z m 2.895832,0.97135 h -2.143228 q 0,0.26823 0.08073,0.46875 0.08073,0.19792 0.221354,0.32552 0.135417,0.125 0.320312,0.1875 0.1875,0.0625 0.411458,0.0625 0.296875,0 0.596354,-0.11718 0.302083,-0.1198 0.429687,-0.23438 h 0.02604 v 0.53386 q -0.247396,0.10416 -0.505208,0.17447 -0.257812,0.0703 -0.541666,0.0703 -0.723958,0 -1.130208,-0.39063 -0.40625,-0.39323 -0.40625,-1.11458 0,-0.71354 0.388021,-1.13281 0.390625,-0.41927 1.026041,-0.41927 0.588541,0 0.906249,0.34375 0.320313,0.34375 0.320313,0.97656 z m -0.476563,-0.375 q -0.0026,-0.38541 -0.195312,-0.59635 -0.190104,-0.21094 -0.580729,-0.21094 -0.393229,0 -0.627604,0.23177 -0.23177,0.23177 -0.26302,0.57552 z m 3.296874,0.94011 q 0,0.39843 -0.330729,0.65364 -0.328125,0.25521 -0.898437,0.25521 -0.322917,0 -0.59375,-0.0755 -0.268229,-0.0781 -0.45052,-0.16927 v -0.54948 h 0.02604 q 0.231771,0.17448 0.515625,0.27865 0.283854,0.10156 0.54427,0.10156 0.322917,0 0.505208,-0.10417 0.182292,-0.10416 0.182292,-0.32812 0,-0.17188 -0.09896,-0.26042 -0.09896,-0.0885 -0.380208,-0.15104 -0.104167,-0.0234 -0.273438,-0.0547 -0.166666,-0.0312 -0.304687,-0.0677 -0.382812,-0.10156 -0.544271,-0.29687 -0.158854,-0.19792 -0.158854,-0.48438 0,-0.17968 0.07292,-0.33854 0.07552,-0.15885 0.226562,-0.28385 0.145834,-0.1224 0.369792,-0.19271 0.226562,-0.0729 0.505208,-0.0729 0.260416,0 0.526041,0.0651 0.268229,0.0625 0.445312,0.15364 v 0.52344 h -0.02604 q -0.1875,-0.13802 -0.455729,-0.23177 -0.268229,-0.0964 -0.526042,-0.0964 -0.268229,0 -0.453124,0.10416 -0.184896,0.10157 -0.184896,0.30469 0,0.17969 0.111979,0.27083 0.109375,0.0911 0.354167,0.14844 0.135416,0.0312 0.302083,0.0625 0.16927,0.0312 0.28125,0.0573 0.341145,0.0781 0.526041,0.26823 0.184896,0.19271 0.184896,0.51042 z m 3.135414,-0.56511 h -2.143228 q 0,0.26823 0.08073,0.46875 0.08073,0.19792 0.221354,0.32552 0.135417,0.125 0.320312,0.1875 0.1875,0.0625 0.411459,0.0625 0.296874,0 0.596353,-0.11718 0.302084,-0.1198 0.429688,-0.23438 h 0.02604 v 0.53386 q -0.247395,0.10416 -0.505208,0.17447 -0.257812,0.0703 -0.541666,0.0703 -0.723958,0 -1.130208,-0.39063 -0.40625,-0.39323 -0.40625,-1.11458 0,-0.71354 0.388021,-1.13281 0.390625,-0.41927 1.026041,-0.41927 0.588541,0 0.90625,0.34375 0.320312,0.34375 0.320312,0.97656 z m -0.476562,-0.375 q -0.0026,-0.38541 -0.195313,-0.59635 -0.190104,-0.21094 -0.580729,-0.21094 -0.393228,0 -0.627603,0.23177 -0.231771,0.23177 -0.263021,0.57552 z m 3.651039,1.77865 h -0.489583 v -1.65625 q 0,-0.20052 -0.02344,-0.375 -0.02344,-0.17708 -0.08594,-0.27604 -0.0651,-0.10938 -0.1875,-0.16146 -0.122396,-0.0547 -0.317708,-0.0547 -0.200521,0 -0.419271,0.099 -0.21875,0.099 -0.41927,0.2526 v 2.17188 h -0.489583 v -2.90885 h 0.489583 v 0.32291 q 0.229166,-0.1901 0.473958,-0.29687 0.244791,-0.10677 0.502604,-0.10677 0.471353,0 0.718749,0.28385 0.247396,0.28386 0.247396,0.81771 z m 3.093748,-0.18229 q -0.244791,0.11718 -0.466145,0.18229 -0.21875,0.0651 -0.466146,0.0651 -0.315104,0 -0.578125,-0.0911 -0.26302,-0.0937 -0.45052,-0.28125 -0.190104,-0.1875 -0.294271,-0.47396 -0.104167,-0.28646 -0.104167,-0.66927 0,-0.71354 0.390625,-1.11979 0.393229,-0.40625 1.036458,-0.40625 0.25,0 0.489583,0.0703 0.242187,0.0703 0.442708,0.17188 v 0.54427 h -0.02604 q -0.223958,-0.17448 -0.463541,-0.26823 -0.236979,-0.0937 -0.463541,-0.0937 -0.416667,0 -0.658854,0.28125 -0.239583,0.27864 -0.239583,0.82031 0,0.52604 0.234375,0.80989 0.236979,0.28125 0.664062,0.28125 0.148437,0 0.302083,-0.0391 0.153646,-0.0391 0.276041,-0.10156 0.106771,-0.0547 0.200521,-0.11458 0.09375,-0.0625 0.148437,-0.10678 h 0.02604 z m 3.062499,-1.22136 H 30.70767 q 0,0.26823 0.08073,0.46875 0.08073,0.19792 0.221354,0.32552 0.135416,0.125 0.320312,0.1875 0.1875,0.0625 0.411458,0.0625 0.296875,0 0.596354,-0.11718 0.302083,-0.1198 0.429687,-0.23438 h 0.02604 v 0.53386 q -0.247396,0.10416 -0.505208,0.17447 -0.257812,0.0703 -0.541666,0.0703 -0.723958,0 -1.130208,-0.39063 -0.40625,-0.39323 -0.40625,-1.11458 0,-0.71354 0.388021,-1.13281 0.390625,-0.41927 1.026041,-0.41927 0.588541,0 0.906249,0.34375 0.320313,0.34375 0.320313,0.97656 z m -0.476563,-0.375 q -0.0026,-0.38541 -0.195312,-0.59635 -0.190104,-0.21094 -0.580729,-0.21094 -0.393229,0 -0.627604,0.23177 -0.23177,0.23177 -0.26302,0.57552 z"
     id="text18"
     style="font-size:5.33333px;-inkscape-font-specification:'sans-serif, Normal';letter-spacing:0px"
     aria-label="Presence" />
  <path
     d="m 15.462993,188.01041 q 0.236979,0.26042 0.361979,0.63802 0.127604,0.37761 0.127604,0.85677 0,0.47917 -0.130208,0.85938 -0.127604,0.3776 -0.359375,0.63021 -0.239583,0.26302 -0.567708,0.39583 -0.325521,0.13281 -0.744791,0.13281 -0.408854,0 -0.744792,-0.13541 -0.333333,-0.13542 -0.567708,-0.39323 -0.234374,-0.25782 -0.361979,-0.63282 -0.124999,-0.375 -0.124999,-0.85677 0,-0.47395 0.124999,-0.84895 0.125,-0.37761 0.364584,-0.64584 0.229166,-0.2552 0.567708,-0.39062 0.341145,-0.13542 0.742187,-0.13542 0.416666,0 0.747395,0.13802 0.333333,0.13542 0.565104,0.38802 z m -0.04687,1.49479 q 0,-0.7552 -0.338542,-1.16406 -0.338541,-0.41146 -0.924478,-0.41146 -0.591146,0 -0.929687,0.41146 -0.335937,0.40886 -0.335937,1.16406 0,0.76302 0.343749,1.16927 0.34375,0.40365 0.921875,0.40365 0.578124,0 0.91927,-0.40365 0.34375,-0.40625 0.34375,-1.16927 z m 3.72656,1.9375 h -0.489583 v -0.32291 q -0.247396,0.19531 -0.473958,0.29948 -0.226562,0.10416 -0.5,0.10416 -0.458333,0 -0.713541,-0.27864 -0.255208,-0.28125 -0.255208,-0.82292 v -1.88802 h 0.489583 v 1.65625 q 0,0.22135 0.02083,0.38021 0.02083,0.15625 0.08854,0.26823 0.07031,0.11458 0.182291,0.16666 0.11198,0.0521 0.325521,0.0521 0.190104,0 0.414062,-0.099 0.226563,-0.099 0.421875,-0.25261 v -2.17187 h 0.489583 z m 2.473957,-0.026 q -0.138021,0.0365 -0.302083,0.0599 -0.161458,0.0234 -0.289062,0.0234 -0.445313,0 -0.677083,-0.23958 -0.231771,-0.23958 -0.231771,-0.76823 v -1.54687 h -0.330729 v -0.41146 h 0.330729 v -0.83594 h 0.489583 v 0.83594 h 1.010416 v 0.41146 h -1.010416 v 1.32552 q 0,0.22917 0.01042,0.35937 0.01042,0.12761 0.07292,0.23959 0.05729,0.10416 0.15625,0.15364 0.101563,0.0469 0.307292,0.0469 0.119791,0 0.25,-0.0339 0.130208,-0.0365 0.187499,-0.0599 h 0.02604 z m 3.15104,-1.46354 q 0,0.35417 -0.101562,0.64844 -0.101563,0.29166 -0.286458,0.49479 -0.171875,0.19271 -0.40625,0.29948 -0.231771,0.10416 -0.492187,0.10416 -0.226563,0 -0.411458,-0.0495 -0.182292,-0.0495 -0.372396,-0.15365 v 1.21875 h -0.489583 v -3.98177 h 0.489583 v 0.30469 q 0.195312,-0.16406 0.4375,-0.27344 0.244791,-0.11198 0.520833,-0.11198 0.526041,0 0.817708,0.39844 0.29427,0.39583 0.29427,1.10156 z m -0.505208,0.013 q 0,-0.52604 -0.179687,-0.78646 -0.179688,-0.26041 -0.552083,-0.26041 -0.210938,0 -0.424479,0.0911 -0.213542,0.0911 -0.408854,0.23959 v 1.64843 q 0.208333,0.0937 0.356771,0.12761 0.151041,0.0339 0.341145,0.0339 0.408854,0 0.638021,-0.27604 0.229166,-0.27604 0.229166,-0.81771 z m 3.679685,1.47656 h -0.489583 v -0.32291 q -0.247396,0.19531 -0.473958,0.29948 -0.226563,0.10416 -0.5,0.10416 -0.458333,0 -0.713541,-0.27864 -0.255208,-0.28125 -0.255208,-0.82292 v -1.88802 h 0.489583 v 1.65625 q 0,0.22135 0.02083,0.38021 0.02083,0.15625 0.08854,0.26823 0.07031,0.11458 0.182291,0.16666 0.111979,0.0521 0.325521,0.0521 0.190104,0 0.414062,-0.099 0.226562,-0.099 0.421875,-0.25261 v -2.17187 h 0.489583 z m 2.473958,-0.026 q -0.138021,0.0365 -0.302083,0.0599 -0.161459,0.0234 -0.289063,0.0234 -0.445312,0 -0.677083,-0.23958 -0.23177,-0.23958 -0.23177,-0.76823 v -1.54687 h -0.330729 v -0.41146 h 0.330729 v -0.83594 h 0.489583 v 0.83594 h 1.010416 v 0.41146 h -1.010416 v 1.32552 q 0,0.22917 0.01042,0.35937 0.01042,0.12761 0.07292,0.23959 0.05729,0.10416 0.15625,0.15364 0.101562,0.0469 0.307291,0.0469 0.119792,0 0.25,-0.0339 0.130209,-0.0365 0.1875,-0.0599 h 0.02604 z"
     id="text19"
     style="font-size:5.33333px;-inkscape-font-specification:'sans-serif, Normal';letter-spacing:0px"
     aria-label="Output" />
</svg>
