<?xml version="1.0" encoding="UTF-8" standalone="no"?>
<svg
  width="150"
  height="380"
  viewBox="0 0 150 380"
  version="1.1"
  xmlns="http://www.w3.org/2000/svg">

  <defs>
    <linearGradient id="bgGrad" x1="0" y1="0" x2="0" y2="380" gradientUnits="userSpaceOnUse">
      <stop offset="0%" stop-color="#d0d0d0"/>
      <stop offset="100%" stop-color="#b8b8b8"/>
    </linearGradient>
  </defs>

  <!-- Panel background -->
  <rect x="0" y="0" width="150" height="380" fill="url(#bgGrad)"/>

  <!-- THEREELPEET logo (centered) -->
  <!-- Nudge with translate(x,y) if needed -->
  <g id="thereelpeetLogo" transform="translate(-6.7,-8)">
    <!-- THEREELPEET (black) -->
    <path
      d="m 31.73366,28.186202 h -2.770842 v 6.838563 h -1.031253 v -6.838563 h -2.770842 v -0.91667 h 6.572937 z m 9.32398,6.838563 h -1.031253 v -3.796887 h -3.869804 v 3.796887 H 35.12533 v -7.755233 h 1.031253 v 3.041677 h 3.869804 v -3.041677 h 1.031253 z m 9.542731,0 H 45.49098 v -7.755233 h 5.109391 v 0.91667 h -4.078137 v 2.125007 h 4.078137 v 0.916669 h -4.078137 v 2.880218 h 4.078137 z m 10.402109,0 h -1.338546 l -2.593758,-3.083343 h -1.45313 v 3.083343 h -1.031253 v -7.755233 h 2.171882 q 0.703127,0 1.171878,0.09375 0.468752,0.08854 0.843753,0.322917 0.421876,0.265626 0.656252,0.671877 0.239584,0.401043 0.239584,1.020837 0,0.838544 -0.421876,1.406254 -0.421877,0.562502 -1.161462,0.848961 z m -2.411466,-5.572934 q 0,-0.333335 -0.119792,-0.588544 -0.114584,-0.260417 -0.385418,-0.437501 -0.223959,-0.151042 -0.531252,-0.208334 -0.307293,-0.0625 -0.723961,-0.0625 h -1.213545 v 2.927092 h 1.04167 q 0.489585,0 0.854169,-0.08333 0.364585,-0.08854 0.619794,-0.322918 0.234376,-0.218751 0.343751,-0.500001 0.114584,-0.28646 0.114584,-0.723961 z m 10.870859,5.572934 h -5.109391 v -7.755233 h 5.109391 v 0.91667 h -4.078138 v 2.125007 h 4.078138 v 0.916669 h -4.078138 v 2.880218 h 4.078138 z m 9.094814,0 h -5.109391 v -7.755233 h 5.109391 v 0.91667 H 74.47855 v 2.125007 h 4.078137 v 0.916669 H 74.47855 v 2.880218 h 4.078137 z m 8.891689,0 h -4.906265 v -7.755233 h 1.031253 v 6.838564 h 3.875012 z m 8.454185,-5.411475 q 0,0.515626 -0.182292,0.958336 -0.177084,0.437501 -0.500002,0.760419 -0.401043,0.401043 -0.94792,0.604169 -0.546876,0.197917 -1.380212,0.197917 h -1.031254 v 2.890634 h -1.031253 v -7.755233 h 2.104173 q 0.697919,0 1.182296,0.119792 0.484376,0.114584 0.859378,0.364585 0.442709,0.296876 0.682293,0.739586 0.244793,0.442709 0.244793,1.119795 z m -1.07292,0.02604 q 0,-0.401042 -0.140626,-0.697918 -0.140625,-0.296876 -0.427084,-0.484377 -0.250001,-0.161459 -0.572919,-0.229167 -0.317709,-0.07292 -0.807294,-0.07292 h -1.020837 v 3.098968 h 0.869795 q 0.625002,0 1.015628,-0.109375 0.390626,-0.114584 0.635419,-0.359377 0.244792,-0.25 0.343751,-0.526043 0.104167,-0.276042 0.104167,-0.619794 z m 9.891689,5.385434 h -5.109391 v -7.755233 h 5.109391 v 0.91667 h -4.07814 v 2.125007 h 4.07814 v 0.916669 h -4.07814 v 2.880218 h 4.07814 z m 9.09481,0 h -5.10939 v -7.755233 h 5.10939 v 0.91667 H 109.738 v 2.125007 h 4.07814 v 0.916669 H 109.738 v 2.880218 h 4.07814 z m 9.51669,-6.838563 h -2.77084 v 6.838563 h -1.03125 v -6.838563 h -2.77084 v -0.91667 h 6.57293 z"
      id="text8"
      style="font-size:10.6667px;-inkscape-font-specification:'sans-serif, Normal';letter-spacing:2.35px"
      aria-label="THEREELPEET" />
    <!-- THEREELPEET (red shadow/offset) -->
    <path
      d="m 33.027844,29.246693 h -2.770842 v 6.838563 h -1.031253 v -6.838563 h -2.770843 v -0.91667 h 6.572938 z m 9.32398,6.838563 h -1.031253 v -3.796887 h -3.869804 v 3.796887 h -1.031253 v -7.755233 h 1.031253 V 31.3717 h 3.869804 v -3.041677 h 1.031253 z m 9.542731,0 h -5.109391 v -7.755233 h 5.109391 v 0.91667 H 47.816417 V 31.3717 h 4.078138 v 0.916669 h -4.078138 v 2.880218 h 4.078138 z m 10.402108,0 H 60.958117 L 58.364359,33.001913 H 56.91123 v 3.083343 h -1.031254 v -7.755233 h 2.171882 q 0.703127,0 1.171879,0.09375 0.468751,0.08854 0.843753,0.322917 0.421876,0.265626 0.656252,0.671878 0.239584,0.401042 0.239584,1.020836 0,0.838544 -0.421877,1.406255 -0.421876,0.562501 -1.161462,0.848961 z m -2.411466,-5.572934 q 0,-0.333334 -0.119792,-0.588544 -0.114583,-0.260417 -0.385418,-0.437501 -0.223959,-0.151042 -0.531251,-0.208334 -0.307293,-0.0625 -0.723961,-0.0625 H 56.91123 v 2.927092 h 1.04167 q 0.489584,0 0.854169,-0.08333 0.364584,-0.08854 0.619794,-0.322918 0.234375,-0.218751 0.343751,-0.500001 0.114583,-0.28646 0.114583,-0.723961 z m 10.87086,5.572934 h -5.109391 v -7.755233 h 5.109391 v 0.91667 H 66.677919 V 31.3717 h 4.078138 v 0.916669 h -4.078138 v 2.880218 h 4.078138 z m 9.094814,0 H 74.74148 v -7.755233 h 5.109391 v 0.91667 H 75.772733 V 31.3717 h 4.078138 v 0.916669 h -4.078138 v 2.880218 h 4.078138 z m 8.891689,0 h -4.906266 v -7.755233 h 1.031254 v 6.838564 h 3.875012 z m 8.454185,-5.411475 q 0,0.515626 -0.182293,0.958336 -0.177084,0.437502 -0.500001,0.760419 -0.401043,0.401043 -0.94792,0.604169 -0.546877,0.197917 -1.380213,0.197917 h -1.031253 v 2.890634 h -1.031253 v -7.755233 h 2.104173 q 0.697919,0 1.182296,0.119792 0.484376,0.114584 0.859377,0.364585 0.44271,0.296876 0.682294,0.739586 0.244793,0.442709 0.244793,1.119795 z m -1.072921,0.02604 q 0,-0.401043 -0.140625,-0.697919 -0.140625,-0.296876 -0.427085,-0.484377 -0.25,-0.161459 -0.572918,-0.229167 -0.317709,-0.07292 -0.807294,-0.07292 h -1.020837 v 3.098968 h 0.869795 q 0.625001,0 1.015628,-0.109375 0.390626,-0.114584 0.635418,-0.359376 0.244793,-0.250001 0.343751,-0.526044 0.104167,-0.276042 0.104167,-0.619793 z m 9.891686,5.385433 h -5.10939 v -7.755233 h 5.10939 v 0.91667 h -4.07813 v 2.125007 h 4.07813 v 0.916669 h -4.07813 v 2.880218 h 4.07813 z m 9.09481,0 h -5.10939 v -7.755233 h 5.10939 v 0.91667 h -4.07813 v 2.125007 h 4.07813 v 0.916669 h -4.07813 v 2.880218 h 4.07813 z m 9.5167,-6.838563 h -2.77084 v 6.838563 h -1.03126 v -6.838563 h -2.77084 v -0.91667 h 6.57294 z"
      id="text8-1"
      style="font-size:10.6667px;-inkscape-font-specification:'sans-serif, Normal';letter-spacing:2.35px;fill:#ff0000"
      aria-label="THEREELPEET" />
  </g>

  <!-- GLOBAL knob (density) centered under logo -->
  <g id="globalControl" fill="none" stroke="#111" stroke-opacity="0.65">
    <circle cx="75" cy="58" r="16" stroke-width="1.2"/>
  </g>

  <g id="vcv-global-anchor" fill="#000" fill-opacity="0">
    <circle id="DENSITY_PARAM" cx="75" cy="58" r="16"/>
  </g>

  <g font-family="sans-serif" font-size="6.5" fill="#111" opacity="0.85">
    <text x="75" y="80" text-anchor="middle">DENSITY</text>
  </g>

  <!-- Vertical lanes with color identity -->
  <!-- Lowered a bit to make room for global knob -->
  <g id="lanes">
    <rect x="6"   y="90" width="32" height="278" rx="7" ry="7"
          fill="#d94a4a" fill-opacity="0.18"
          stroke="#000" stroke-opacity="0.10" stroke-width="1"/>
    <rect x="40"  y="90" width="32" height="278" rx="7" ry="7"
          fill="#4a78d9" fill-opacity="0.18"
          stroke="#000" stroke-opacity="0.10" stroke-width="1"/>
    <rect x="74"  y="90" width="32" height="278" rx="7" ry="7"
          fill="#5fa86e" fill-opacity="0.18"
          stroke="#000" stroke-opacity="0.10" stroke-width="1"/>
    <rect x="108" y="90" width="32" height="278" rx="7" ry="7"
          fill="#d9b44a" fill-opacity="0.18"
          stroke="#000" stroke-opacity="0.10" stroke-width="1"/>
  </g>

  <!-- Lanes: OUT at top, PRESENCE knob underneath -->
  <!-- Layout per lane:
       OUT y=120
       PRESENCE knob y=170
       Everything below left open for future -->
  <g id="controls" fill="none" stroke="#111" stroke-opacity="0.65">
    <!-- OUT jack rings -->
    <circle cx="22"  cy="120" r="10" stroke-width="1.2"/>
    <circle cx="56"  cy="120" r="10" stroke-width="1.2"/>
    <circle cx="90"  cy="120" r="10" stroke-width="1.2"/>
    <circle cx="124" cy="120" r="10" stroke-width="1.2"/>

    <!-- PRESENCE knob rings -->
    <circle cx="22"  cy="170" r="14" stroke-width="1.2"/>
    <circle cx="56"  cy="170" r="14" stroke-width="1.2"/>
    <circle cx="90"  cy="170" r="14" stroke-width="1.2"/>
    <circle cx="124" cy="170" r="14" stroke-width="1.2"/>
  </g>

  <!-- Rack anchors -->
  <g id="vcv-anchors" fill="#000" fill-opacity="0">
    <!-- Outputs -->
    <circle id="OUT1_OUTPUT" cx="22"  cy="120" r="10"/>
    <circle id="OUT2_OUTPUT" cx="56"  cy="120" r="10"/>
    <circle id="OUT3_OUTPUT" cx="90"  cy="120" r="10"/>
    <circle id="OUT4_OUTPUT" cx="124" cy="120" r="10"/>

    <!-- Per-lane presence knobs -->
    <circle id="PRESENCE1_PARAM" cx="22"  cy="170" r="14"/>
    <circle id="PRESENCE2_PARAM" cx="56"  cy="170" r="14"/>
    <circle id="PRESENCE3_PARAM" cx="90"  cy="170" r="14"/>
    <circle id="PRESENCE4_PARAM" cx="124" cy="170" r="14"/>
  </g>

  <!-- Labels -->
  <g font-family="sans-serif" font-size="6.5" fill="#111" opacity="0.82">
    <text x="22"  y="136" text-anchor="middle">OUT</text>
    <text x="56"  y="136" text-anchor="middle">OUT</text>
    <text x="90"  y="136" text-anchor="middle">OUT</text>
    <text x="124" y="136" text-anchor="middle">OUT</text>

    <text x="22"  y="193" text-anchor="middle">PRES</text>
    <text x="56"  y="193" text-anchor="middle">PRES</text>
    <text x="90"  y="193" text-anchor="middle">PRES</text>
    <text x="124" y="193" text-anchor="middle">PRES</text>
  </g>

</svg>